<?xml version="1.0" standalone="no"?>
<!DOCTYPE svg PUBLIC "-//W3C//DTD SVG 20010904//EN"
 "http://www.w3.org/TR/2001/REC-SVG-20010904/DTD/svg10.dtd">
<svg version="1.0" xmlns="http://www.w3.org/2000/svg"
 width="1024.000000pt" height="1024.000000pt" viewBox="0 0 1024.000000 1024.000000"
 preserveAspectRatio="xMidYMid meet">

<g transform="translate(0.000000,1024.000000) scale(0.100000,-0.100000)" 
fill = '#ffffff' stroke="none">
<path d="M6129 8424 c-24 -30 49 -142 85 -128 9 3 16 13 16 20 0 19 -35 88
-55 108 -21 20 -29 20 -46 0z"/>
<path d="M6628 8423 c-9 -10 -26 -37 -38 -61 -20 -38 -21 -45 -8 -58 21 -21
39 -10 71 42 30 50 33 64 15 82 -16 16 -22 15 -40 -5z"/>
<path d="M4065 8402 c-6 -4 -37 -61 -70 -127 l-60 -120 0 -470 c1 -451 2 -472
20 -498 55 -74 181 -74 232 1 17 25 18 60 18 502 l0 475 -63 123 c-34 67 -63
122 -64 122 -2 0 -8 -4 -13 -8z m23 -149 c5 -16 13 -36 17 -45 6 -15 1 -18
-34 -18 -23 0 -41 2 -41 5 0 14 33 85 40 85 4 0 13 -12 18 -27z m42 -140 c7
-6 12 -823 5 -850 -10 -41 -103 -48 -127 -10 -9 15 -10 544 -1 730 l6 136 36
4 c35 3 71 -1 81 -10z"/>
<path d="M5005 8365 c-131 -29 -220 -77 -306 -166 -106 -110 -159 -247 -159
-411 0 -173 53 -299 175 -417 163 -159 393 -208 611 -131 165 58 305 211 360
395 28 93 24 250 -8 337 -38 101 -85 172 -162 245 -140 132 -331 188 -511 148z
m275 -85 c223 -74 378 -304 356 -527 -21 -212 -144 -373 -345 -450 -93 -37
-234 -37 -338 -1 -211 74 -345 259 -345 478 0 147 41 260 131 362 72 80 184
142 291 162 55 10 187 -2 250 -24z"/>
<path d="M4912 8170 c-64 -37 -142 -110 -142 -134 0 -36 31 -28 85 23 30 29
75 61 100 72 50 22 58 30 49 53 -9 23 -32 20 -92 -14z"/>
<path d="M5025 8047 c-117 -45 -175 -132 -175 -262 0 -111 65 -209 168 -252
61 -26 161 -21 226 11 208 102 202 394 -9 492 -56 27 -157 32 -210 11z m184
-76 c178 -91 145 -337 -50 -380 -121 -27 -239 71 -239 199 0 83 37 142 115
183 42 23 127 21 174 -2z"/>
<path d="M8091 8258 c-123 -42 -211 -164 -211 -293 0 -42 5 -60 20 -75 19 -19
33 -20 284 -20 255 0 264 1 291 22 26 20 27 25 23 88 -6 77 -51 174 -102 217
-86 73 -203 96 -305 61z m206 -76 c46 -24 100 -81 118 -126 18 -45 25 -90 16
-105 -10 -15 -12 -16 -273 -13 l-208 2 0 43 c0 89 69 179 165 215 42 16 134 8
182 -16z"/>
<path d="M5816 8215 c-4 -15 -16 -27 -31 -31 -19 -5 -25 -13 -25 -34 0 -23 5
-30 30 -35 25 -5 30 -11 30 -36 0 -49 52 -36 61 16 3 11 15 22 29 25 37 9 35
54 -1 58 -21 2 -28 10 -33 33 -7 39 -51 42 -60 4z"/>
<path d="M1940 8186 c-149 -42 -247 -148 -290 -313 l-11 -42 -112 -3 -112 -3
0 -25 0 -25 342 -3 c332 -2 342 -2 353 17 18 35 -15 41 -215 41 l-187 0 7 33
c21 105 110 209 213 247 114 43 259 11 344 -77 58 -60 98 -145 98 -209 l0 -54
120 0 119 0 3 -276 3 -276 37 -34 38 -34 467 0 c447 0 469 1 500 20 63 38 64
45 61 410 l-3 330 -33 32 c-31 31 -37 33 -125 38 l-92 5 -40 75 -40 75 -211 3
c-240 3 -219 10 -269 -91 -16 -33 -35 -62 -40 -64 -6 -2 -16 10 -22 27 -11 29
-14 30 -71 30 -79 0 -89 -5 -103 -48 -6 -21 -20 -46 -30 -57 -10 -12 -22 -39
-27 -60 l-8 -40 -78 0 -79 0 -21 67 c-71 217 -282 341 -486 284z m1443 -191
l37 -75 84 0 c94 0 134 -13 141 -44 3 -12 4 -157 2 -324 -2 -256 -4 -304 -17
-312 -20 -13 -910 -13 -930 0 -19 12 -29 218 -11 230 9 5 9 14 1 34 -5 15 -10
52 -10 82 l0 54 50 0 c36 0 52 4 57 15 8 22 -2 28 -55 35 l-47 5 -3 94 c-2 60
1 98 9 107 8 10 35 14 89 14 129 0 131 1 173 86 l37 74 178 0 178 0 37 -75z
m-610 -26 c-8 -8 -16 -8 -30 0 -16 9 -14 10 12 11 21 0 26 -3 18 -11z"/>
<path d="M3090 7961 c-109 -23 -217 -120 -262 -237 -26 -66 -27 -73 -17 -151
9 -71 16 -92 51 -145 75 -116 167 -165 310 -167 122 -2 226 54 297 158 45 66
60 118 61 207 0 122 -86 250 -207 309 -57 27 -169 40 -233 26z m201 -78 c109
-49 173 -148 173 -268 0 -162 -124 -285 -289 -285 -127 0 -221 53 -269 153
-33 68 -41 121 -27 190 38 182 241 286 412 210z"/>
<path d="M3116 7810 c-130 -41 -189 -207 -110 -308 84 -105 238 -108 321 -7
58 70 63 152 14 232 -39 63 -154 106 -225 83z m122 -80 c18 -11 41 -34 53 -52
39 -63 2 -150 -79 -185 -51 -21 -122 3 -152 52 -72 116 62 256 178 185z"/>
<path d="M2737 7864 c-11 -11 -8 -52 3 -59 6 -3 19 -3 31 0 28 9 23 59 -6 63
-12 2 -24 0 -28 -4z"/>
<path d="M2710 7479 c0 -5 9 -9 20 -9 11 0 20 2 20 4 0 2 -9 6 -20 9 -11 3
-20 1 -20 -4z"/>
<path d="M7721 8176 c-5 -13 -19 -26 -30 -29 -31 -8 -29 -55 3 -67 13 -4 26
-20 30 -34 9 -36 41 -34 54 3 6 16 20 32 31 36 27 8 27 41 1 55 -12 6 -25 22
-30 36 -12 32 -47 32 -59 0z"/>
<path d="M6221 8166 c-8 -9 -11 -78 -9 -227 l3 -214 38 -3 37 -3 0 -255 c0
-286 4 -304 66 -330 47 -20 95 -9 131 28 l28 29 3 265 3 264 34 0 c29 0 36 4
41 25 9 35 0 407 -9 423 -12 18 -350 17 -366 -2z m209 -142 c5 -83 7 -89 28
-92 21 -3 22 -1 22 92 0 96 0 96 25 96 l25 0 0 -142 c0 -79 -4 -148 -8 -155
-4 -7 -49 -13 -122 -15 l-115 -3 -3 153 c-2 147 -2 152 18 152 18 0 20 -6 20
-84 0 -88 6 -102 40 -91 18 6 20 15 20 90 0 81 6 98 35 91 6 -1 12 -43 15 -92z
m14 -316 c10 -40 7 -458 -4 -479 -12 -21 -50 -25 -68 -7 -9 9 -12 80 -12 260
l0 248 39 0 c32 0 40 -4 45 -22z"/>
<path d="M2498 8145 c-8 -19 -8 -28 2 -40 31 -37 93 3 70 45 -16 29 -58 26
-72 -5z"/>
<path d="M6852 8138 c-7 -7 -12 -19 -12 -28 0 -9 -14 -21 -31 -27 -38 -15 -38
-54 1 -63 15 -4 26 -15 30 -30 9 -39 48 -39 63 -1 6 18 19 31 32 33 31 5 32
46 2 57 -14 6 -31 22 -39 37 -15 32 -29 39 -46 22z"/>
<path d="M7265 8000 c-66 -14 -123 -37 -179 -75 -83 -55 -157 -153 -143 -189
10 -25 33 -19 62 17 75 93 141 141 227 169 149 46 313 3 425 -110 51 -52 73
-93 97 -174 10 -34 24 -62 36 -68 29 -15 1172 -14 1188 2 19 19 14 45 -10 52
-13 3 -85 6 -161 6 l-138 0 3 33 3 32 146 3 c117 2 150 6 160 18 7 9 9 18 3
24 -13 13 -228 20 -750 26 l-452 4 -41 55 c-104 138 -302 210 -476 175z m1283
-296 c51 -7 52 -7 52 -40 l0 -34 -389 0 -389 0 -7 30 c-4 16 -4 34 0 40 7 11
642 14 733 4z"/>
<path d="M2080 7653 c-92 -104 -162 -227 -201 -353 -34 -109 -34 -287 0 -382
32 -87 105 -187 170 -228 l51 -33 -1 -261 c0 -144 -4 -249 -9 -235 -4 14 -28
66 -54 116 -60 117 -152 215 -320 346 -72 56 -148 117 -169 136 -26 23 -41 31
-48 24 -26 -26 -51 -161 -56 -308 -6 -164 9 -257 61 -385 59 -145 195 -297
321 -359 l69 -34 -78 -27 c-91 -32 -146 -73 -163 -121 -8 -23 -12 -135 -13
-359 l0 -325 -44 -29 c-121 -81 -128 -213 -16 -308 123 -106 338 -157 615
-144 177 8 308 34 402 82 117 59 192 156 179 232 -8 49 -48 105 -101 142 l-45
31 0 330 c0 353 -1 359 -52 405 -31 29 -95 61 -153 75 l-47 12 78 40 c121 63
217 163 283 297 66 134 91 246 91 416 0 116 -22 290 -41 327 -14 25 -31 21
-63 -12 -16 -16 -71 -62 -124 -103 -264 -203 -315 -264 -420 -508 -8 -19 -11
42 -11 241 l-1 266 25 11 c38 18 123 101 151 147 51 87 67 152 67 275 1 123
-17 210 -67 323 -44 99 -182 287 -211 287 -7 0 -32 -21 -55 -47z m111 -115
c107 -153 149 -273 149 -428 0 -139 -23 -209 -99 -308 -15 -18 -36 -39 -48
-48 l-23 -14 0 68 c0 68 0 69 48 118 94 97 113 144 58 144 -17 0 -35 -13 -57
-40 -18 -22 -36 -40 -41 -40 -4 0 -8 103 -8 229 0 126 -3 236 -6 245 -3 9 -16
16 -29 16 -32 0 -35 -25 -35 -284 l-1 -221 -37 40 c-61 64 -70 69 -87 55 -27
-23 -16 -49 55 -121 l70 -72 0 -64 c0 -59 -1 -63 -18 -54 -33 18 -94 92 -118
145 -84 185 -32 454 126 655 22 28 42 51 45 51 2 0 28 -33 56 -72z m-582 -921
c36 -29 96 -76 132 -105 149 -116 232 -234 284 -403 16 -51 36 -270 25 -268
-3 0 -27 36 -55 80 -27 43 -73 114 -102 157 -79 117 -90 141 -96 216 -5 72
-23 104 -51 93 -11 -5 -16 -20 -16 -52 0 -25 -3 -45 -6 -45 -12 0 -70 44 -116
88 -50 48 -78 51 -78 9 0 -28 46 -76 120 -127 30 -21 63 -46 72 -56 28 -32
149 -216 144 -221 -2 -2 -36 13 -75 34 -67 36 -71 37 -88 20 -14 -13 -15 -21
-7 -35 16 -25 111 -78 175 -98 54 -16 57 -19 88 -82 l32 -65 -31 7 c-53 10
-155 64 -209 109 -90 75 -149 164 -204 312 -27 72 -30 94 -35 226 -4 133 8
259 25 259 3 0 36 -24 72 -53z m1136 26 c15 -62 22 -203 14 -287 -11 -107 -56
-248 -109 -337 -45 -76 -143 -172 -217 -212 -48 -25 -143 -60 -143 -51 0 9 36
82 53 107 10 15 25 27 34 27 28 0 203 93 209 112 14 47 -24 49 -107 7 -34 -17
-63 -28 -66 -26 -2 3 18 38 46 79 27 41 57 90 66 109 10 21 43 53 86 83 112
79 164 149 129 171 -6 4 -31 -11 -56 -32 -80 -68 -127 -103 -135 -103 -5 0 -6
18 -3 39 5 34 2 41 -17 51 -31 17 -49 -9 -49 -69 -1 -25 -7 -62 -14 -82 -14
-39 -209 -364 -234 -389 -13 -13 -14 -3 -8 81 18 275 127 462 376 646 53 39
102 78 109 87 19 23 28 20 36 -11z m-292 -1039 c55 -18 102 -55 110 -85 14
-54 -103 -117 -258 -139 -263 -37 -595 31 -595 123 0 56 153 132 251 125 43
-3 43 -3 -43 -27 -113 -31 -163 -59 -163 -91 0 -21 9 -29 60 -49 97 -38 213
-54 355 -48 171 7 330 46 355 88 19 30 -76 82 -197 109 -32 7 -55 16 -53 20 6
10 121 -7 178 -26z m105 -482 l-3 -269 -28 -36 c-40 -52 -102 -92 -188 -118
-98 -31 -301 -34 -394 -5 -130 39 -204 97 -225 176 -6 23 -10 136 -10 276 1
216 3 236 18 230 194 -64 324 -80 511 -65 113 9 249 41 291 69 8 5 19 10 23
10 4 0 7 -121 5 -268z m-888 -336 c0 -31 109 -124 182 -155 164 -70 440 -67
594 6 30 14 54 29 54 34 0 6 8 13 17 16 25 10 73 61 84 90 l9 24 30 -21 c83
-59 88 -110 15 -177 -97 -89 -312 -138 -575 -130 -303 9 -510 98 -510 221 0
20 12 40 39 67 40 40 61 49 61 25z"/>
<path d="M7783 7425 c-15 -11 -26 -34 -34 -76 -36 -181 -254 -314 -458 -279
-116 19 -185 62 -299 186 -16 17 -52 2 -52 -23 0 -27 72 -111 130 -152 203
-141 487 -110 656 72 l58 62 594 5 c560 5 595 6 606 23 9 15 7 21 -9 33 -16
12 -61 14 -262 12 l-243 -3 0 33 0 32 239 0 c132 0 246 3 255 6 9 3 16 12 16
19 0 7 -7 16 -16 19 -9 3 -120 6 -248 6 -212 0 -235 2 -271 20 -37 19 -59 20
-340 20 -253 0 -304 -2 -322 -15z m601 -51 c11 -4 16 -19 16 -45 l0 -39 -289
0 c-187 0 -292 4 -296 10 -4 6 -4 24 0 40 l7 30 251 3 c139 1 262 3 274 5 12
1 28 -1 37 -4z"/>
<path d="M6648 7403 c-61 -38 -71 -125 -21 -175 34 -34 97 -47 132 -28 33 17
61 70 61 114 0 54 -52 106 -106 106 -22 0 -51 -8 -66 -17z m98 -64 c17 -19 17
-23 3 -47 -27 -49 -89 -37 -89 17 0 51 51 69 86 30z"/>
<path d="M4422 7398 c-7 -7 -12 -17 -12 -24 0 -7 -14 -17 -31 -23 -42 -14 -38
-52 8 -65 24 -7 33 -16 35 -35 4 -36 51 -38 56 -3 3 16 15 28 38 38 19 8 34
18 34 23 0 14 -30 41 -45 41 -7 0 -18 14 -25 30 -13 31 -37 39 -58 18z"/>
<path d="M5786 7274 c-19 -18 -20 -28 -6 -55 20 -37 80 -18 80 26 0 42 -44 59
-74 29z"/>
<path d="M1397 7163 c-12 -12 -7 -58 8 -80 14 -21 14 -21 -23 -16 -44 6 -92
-11 -92 -31 0 -33 41 -46 142 -46 68 0 98 4 98 12 0 6 -21 47 -46 90 -43 73
-67 92 -87 71z"/>
<path d="M8077 7073 c-4 -3 -7 -16 -7 -29 0 -25 36 -34 107 -26 40 4 43 7 43
33 l0 29 -68 0 c-38 0 -72 -3 -75 -7z"/>
<path d="M3229 6992 c-65 -34 -105 -88 -118 -157 -6 -29 -9 -550 -9 -1260 0
-1124 -1 -1213 -17 -1250 -50 -115 -128 -321 -225 -590 -59 -165 -135 -372
-168 -460 -33 -88 -67 -184 -76 -214 -31 -105 -15 -196 45 -265 74 -84 -164
-77 2474 -74 l2350 3 47 28 c67 39 100 98 106 191 4 66 1 80 -48 211 -28 77
-72 196 -97 265 -210 584 -321 880 -345 921 -11 20 -14 253 -18 1269 -6 1389
1 1267 -77 1342 -76 74 91 68 -1942 68 l-1829 0 -53 -28z m3750 -71 c18 -13
42 -42 52 -65 18 -39 19 -91 19 -1167 l0 -1126 -23 -34 c-12 -18 -34 -39 -47
-46 -20 -10 -411 -13 -1855 -13 -1723 0 -1832 1 -1864 18 -19 9 -44 30 -55 45
-21 28 -21 34 -24 1120 -2 601 0 1115 3 1144 8 63 38 112 85 136 33 16 138 17
1855 15 l1820 -3 34 -24z m108 -2621 c23 -27 45 -84 274 -712 191 -527 199
-552 199 -623 0 -64 -3 -77 -26 -104 -14 -17 -42 -35 -62 -41 -24 -6 -369 -10
-984 -10 l-948 0 0 30 c0 17 -9 39 -20 50 -19 19 -33 20 -398 20 -418 0 -418
0 -424 -63 l-3 -32 -953 -3 c-1035 -2 -1001 -4 -1038 52 -10 16 -19 54 -21 94
-5 75 -7 69 150 502 196 544 219 608 242 665 13 33 33 86 45 117 12 32 29 62
38 68 11 6 709 9 1965 10 1927 0 1947 0 1964 -20z"/>
<path d="M5094 6895 c-8 -20 4 -35 27 -35 14 0 19 7 19 25 0 18 -5 25 -20 25
-11 0 -23 -7 -26 -15z"/>
<path d="M3359 6781 l-29 -29 0 -1037 c0 -1160 -5 -1084 70 -1105 22 -6 652
-10 1723 -10 1459 0 1692 2 1723 15 68 28 65 -29 62 1111 l-3 1026 -33 29 -32
29 -1726 0 -1726 0 -29 -29z m3473 -53 c4 -7 8 -471 8 -1030 l0 -1018 -22 -5
c-13 -3 -786 -4 -1718 -3 l-1695 3 -3 1032 -2 1032 22 4 c13 2 783 3 1712 1
1367 -3 1691 -6 1698 -16z"/>
<path d="M3327 4223 c-2 -5 -7 -20 -11 -35 l-6 -28 1805 0 c1776 0 1805 0
1805 19 0 11 -7 27 -16 35 -14 14 -190 16 -1794 16 -978 0 -1781 -3 -1783 -7z"/>
<path d="M3305 4117 c-16 -9 -49 -113 -40 -127 8 -13 156 -13 189 0 25 9 46
58 46 107 0 20 -5 22 -91 25 -50 2 -97 0 -104 -5z"/>
<path d="M3648 4123 l-87 -4 -10 -37 c-24 -95 -25 -90 17 -97 51 -8 184 3 193
16 10 17 21 108 14 119 -3 6 -14 9 -23 8 -9 -1 -56 -4 -104 -5z"/>
<path d="M4205 4123 c-44 -2 -83 -7 -87 -11 -4 -4 -11 -32 -16 -63 l-9 -57 51
-5 c61 -6 167 0 177 11 4 4 9 34 10 67 3 69 14 64 -126 58z"/>
<path d="M4489 4122 l-97 -3 -6 -31 c-3 -17 -6 -45 -6 -63 0 -31 2 -33 44 -38
42 -6 166 1 175 9 3 3 7 31 9 63 3 43 1 59 -9 62 -8 2 -57 3 -110 1z"/>
<path d="M4678 4119 c-5 -3 -12 -33 -15 -66 l-6 -60 39 -5 c22 -2 73 -2 114 1
l75 6 3 62 3 62 -102 3 c-55 2 -105 0 -111 -3z"/>
<path d="M6158 4122 l-98 -3 0 -27 c0 -15 5 -43 10 -63 13 -46 35 -53 147 -44
76 7 83 9 83 29 0 49 -14 97 -29 104 -9 4 -60 6 -113 4z"/>
<path d="M3836 4112 c-3 -5 -9 -34 -14 -64 l-9 -56 56 -5 c31 -4 82 -3 113 0
l57 6 10 49 c18 83 24 78 -98 78 -61 0 -112 -4 -115 -8z"/>
<path d="M4940 4056 l0 -65 53 -5 c28 -4 61 -4 72 -2 11 2 39 5 63 5 l42 1 0
65 0 65 -115 0 -115 0 0 -64z"/>
<path d="M5223 4060 c3 -34 8 -65 12 -68 10 -10 206 -5 216 5 4 4 5 33 1 63
l-7 55 -114 3 -114 3 6 -61z"/>
<path d="M5504 4058 c4 -35 10 -65 13 -68 5 -5 215 -1 221 5 2 1 0 29 -5 61
l-8 59 -114 3 -114 3 7 -63z"/>
<path d="M5785 4063 c4 -32 10 -61 14 -66 7 -7 97 -12 180 -9 l44 2 -7 50
c-11 84 -5 80 -128 80 l-109 0 6 -57z"/>
<path d="M6340 4112 c0 -5 5 -34 11 -65 11 -52 14 -57 38 -58 14 0 45 -2 69
-6 57 -7 132 5 132 21 0 7 -7 36 -15 64 l-16 52 -109 0 c-61 0 -110 -4 -110
-8z"/>
<path d="M6620 4107 c0 -7 7 -36 15 -64 19 -64 25 -66 201 -57 l136 7 -7 36
c-4 20 -12 47 -18 61 -12 25 -13 25 -170 28 -126 2 -157 0 -157 -11z"/>
<path d="M3230 3908 c-10 -24 -22 -55 -25 -70 l-7 -28 186 0 c211 0 199 -5
212 88 l7 52 -177 0 -177 0 -19 -42z"/>
<path d="M3662 3937 c-6 -7 -14 -39 -18 -70 l-7 -57 112 0 c126 0 125 -1 132
90 l4 45 -106 3 c-79 2 -109 -1 -117 -11z"/>
<path d="M3946 3942 c-8 -14 -23 -121 -18 -127 3 -3 52 -5 109 -5 102 0 104 0
113 26 6 14 10 45 10 70 l0 44 -104 0 c-58 0 -107 -4 -110 -8z"/>
<path d="M4220 3948 c0 -2 -5 -30 -10 -63 -7 -45 -7 -61 3 -67 14 -9 188 -11
211 -2 12 5 16 21 16 70 l0 64 -110 0 c-60 0 -110 -1 -110 -2z"/>
<path d="M4496 3913 c-3 -21 -6 -53 -6 -70 l0 -33 115 0 115 0 0 70 0 70 -109
0 -108 0 -7 -37z"/>
<path d="M4776 3913 c-16 -100 -13 -103 126 -103 96 0 108 8 108 67 0 73 -1
73 -120 73 l-107 0 -7 -37z"/>
<path d="M5058 3888 c-2 -35 -2 -65 0 -68 2 -3 54 -5 115 -5 l112 0 3 34 c2
19 1 50 -3 68 l-6 33 -109 0 -108 0 -4 -62z"/>
<path d="M5340 3886 c0 -58 2 -64 23 -70 37 -10 205 -7 212 4 3 5 3 37 -1 70
l-7 60 -113 0 -114 0 0 -64z"/>
<path d="M5630 3885 c0 -78 -1 -77 140 -73 l95 3 -3 45 c-5 95 2 90 -122 90
l-110 0 0 -65z"/>
<path d="M5913 3891 c3 -33 8 -64 12 -70 4 -7 49 -11 117 -11 l111 0 -7 61
c-3 33 -8 65 -12 70 -3 5 -55 9 -116 9 l-111 0 6 -59z"/>
<path d="M6197 3943 c-3 -5 -2 -32 0 -61 7 -67 18 -72 150 -72 l96 0 -7 52
c-12 88 -12 88 -131 88 -57 0 -106 -3 -108 -7z"/>
<path d="M6484 3889 c3 -33 8 -65 12 -70 3 -5 120 -9 270 -9 298 0 278 -7 243
85 l-20 55 -256 0 -256 0 7 -61z"/>
<path d="M4423 3773 l-82 -4 -6 -43 c-14 -90 -14 -91 104 -94 57 -1 108 1 113
6 6 6 12 37 15 71 5 48 3 61 -8 61 -8 0 -23 2 -34 3 -11 2 -57 2 -102 0z"/>
<path d="M3190 3755 c-16 -19 -41 -105 -34 -116 3 -5 122 -9 265 -9 l259 0 11
27 c5 15 13 46 16 70 l6 43 -255 0 c-211 0 -258 -3 -268 -15z"/>
<path d="M3760 3711 c-7 -33 -9 -64 -6 -70 9 -13 194 -15 215 -2 14 9 33 108
24 124 -2 4 -53 7 -112 7 l-108 0 -13 -59z"/>
<path d="M4055 3758 c-3 -7 -6 -38 -8 -68 l-2 -55 100 -3 c55 -1 106 2 113 7
8 4 16 35 19 70 l6 61 -112 0 c-80 0 -113 -4 -116 -12z"/>
<path d="M4627 3763 c-4 -3 -7 -32 -7 -64 0 -43 4 -58 16 -63 9 -3 58 -6 109
-6 109 0 115 5 115 89 l0 51 -113 0 c-63 0 -117 -3 -120 -7z"/>
<path d="M4917 3763 c-4 -3 -7 -32 -7 -64 0 -70 2 -71 135 -67 l90 3 3 68 3
67 -109 0 c-60 0 -112 -3 -115 -7z"/>
<path d="M5193 3754 c-7 -19 4 -105 15 -116 5 -5 56 -7 113 -6 118 3 118 3
104 95 l-6 43 -110 0 c-90 0 -111 -3 -116 -16z"/>
<path d="M5480 3717 c0 -83 8 -88 125 -85 l100 3 3 34 c2 19 1 50 -3 68 l-6
33 -109 0 -110 0 0 -53z"/>
<path d="M5763 3709 c3 -35 11 -65 19 -70 7 -5 60 -9 117 -9 l104 0 -7 61 c-3
33 -8 65 -12 70 -3 5 -55 9 -116 9 l-111 0 6 -61z"/>
<path d="M6052 3709 c3 -38 10 -64 19 -70 17 -11 209 -12 227 -1 9 6 10 21 2
61 -5 29 -12 57 -15 62 -4 5 -58 9 -122 9 l-115 0 4 -61z"/>
<path d="M6350 3748 c1 -40 18 -101 32 -109 7 -5 59 -9 116 -9 l103 0 -7 48
c-14 95 -9 92 -134 92 -107 0 -110 -1 -110 -22z"/>
<path d="M6640 3743 c0 -39 17 -95 32 -105 17 -10 379 -10 396 0 10 7 9 21 -6
68 l-18 59 -202 3 -202 2 0 -27z"/>
<path d="M3275 3590 l-140 -5 -13 -29 c-8 -15 -17 -46 -19 -67 l-6 -39 151 0
151 0 16 52 c17 57 19 85 8 90 -5 2 -71 1 -148 -2z"/>
<path d="M4159 3592 l-97 -3 -11 -44 c-6 -24 -11 -55 -11 -69 l0 -26 104 0
104 0 11 50 c13 60 14 88 4 92 -5 2 -51 2 -104 0z"/>
<path d="M6218 3593 c-76 -4 -78 -5 -78 -29 0 -14 5 -45 11 -70 l11 -44 104 0
104 0 0 26 c0 20 -15 89 -24 111 -3 6 -63 9 -128 6z"/>
<path d="M6973 3593 c-30 -4 -33 -7 -32 -36 0 -18 6 -48 13 -67 11 -31 18 -36
59 -44 63 -11 117 -1 117 23 0 26 -32 115 -44 123 -11 8 -55 8 -113 1z"/>
<path d="M3492 3566 c-6 -13 -14 -44 -17 -70 l-7 -46 106 0 c106 0 107 0 117
27 5 15 13 46 16 70 l6 43 -105 0 c-101 0 -105 -1 -116 -24z"/>
<path d="M3771 3558 c-5 -18 -13 -50 -17 -70 l-6 -38 111 0 c126 0 121 -3 135
93 l7 47 -110 0 -109 0 -11 -32z"/>
<path d="M4331 3573 c-5 -10 -11 -40 -12 -68 l-4 -50 753 -3 752 -2 0 26 c0
14 -5 45 -11 70 l-11 44 -729 0 c-683 0 -729 -1 -738 -17z"/>
<path d="M5870 3546 c0 -25 4 -56 10 -70 9 -26 11 -26 115 -26 l105 0 -6 43
c-16 98 -8 92 -122 95 l-102 3 0 -45z"/>
<path d="M6420 3551 c0 -21 5 -52 11 -69 l10 -30 217 -4 c119 -2 223 -2 231 1
18 5 9 82 -13 116 l-16 25 -220 0 -220 0 0 -39z"/>
<path d="M4431 3372 c-10 -19 -11 -24 -41 -217 -12 -71 -23 -137 -26 -146 -2
-9 3 -24 11 -33 15 -14 89 -16 739 -16 575 0 726 3 740 13 17 12 16 22 -14
202 -17 105 -36 196 -42 203 -8 9 -157 12 -684 12 -634 0 -674 -1 -683 -18z
m1333 -169 c10 -65 20 -130 23 -145 l6 -28 -678 0 -677 0 5 23 c3 12 13 77 23
145 l18 122 631 0 632 0 17 -117z"/>
<path d="M7454 6910 c-11 -4 -33 -22 -47 -40 l-27 -32 0 -469 c0 -510 -1 -503
56 -548 27 -21 31 -21 778 -21 576 0 757 3 775 13 13 6 34 25 45 40 21 28 21
35 19 507 -1 333 -5 485 -13 500 -6 12 -26 30 -43 40 -31 19 -56 20 -777 19
-410 0 -754 -4 -766 -9z m1513 -73 c12 -11 14 -97 14 -472 0 -320 -3 -461 -11
-469 -8 -8 -226 -11 -746 -13 -712 -1 -736 -1 -755 18 -18 18 -19 39 -19 459
0 461 2 486 44 492 11 2 345 2 740 1 594 -2 722 -5 733 -16z"/>
<path d="M7550 6760 c-12 -7 -16 -43 -18 -197 -3 -169 -2 -189 14 -200 22 -16
395 -19 425 -3 18 10 19 23 19 208 l0 197 -213 3 c-123 1 -218 -2 -227 -8z
m388 -49 c1 -1 1 -70 0 -153 l-3 -153 -170 0 -170 0 -3 152 c-2 138 -1 152 15
156 15 4 321 2 331 -2z"/>
<path d="M8078 6743 c-3 -16 -4 -108 -3 -207 2 -139 5 -180 16 -187 8 -5 192
-8 409 -6 l395 2 8 179 c5 99 6 195 2 213 l-6 33 -408 0 -408 0 -5 -27z"/>
<path d="M7537 6244 c-4 -4 -7 -69 -7 -145 0 -116 2 -138 16 -143 20 -8 392
-8 422 0 22 6 23 8 20 148 l-3 141 -221 3 c-121 1 -223 -1 -227 -4z"/>
<path d="M8082 6228 c-14 -38 -5 -260 10 -269 7 -5 189 -9 405 -9 363 0 393 1
402 18 5 9 9 69 9 132 0 63 -4 123 -9 133 -9 16 -39 17 -410 17 l-399 0 -8
-22z m502 -111 c4 -30 2 -65 -3 -80 -10 -26 -13 -27 -95 -27 -78 0 -84 1 -90
23 -8 30 -8 122 1 130 3 4 46 7 94 7 l87 0 6 -53z m254 -21 c2 -49 -1 -72 -10
-77 -15 -10 -129 -12 -152 -3 -12 5 -16 21 -16 73 0 37 3 71 7 75 4 4 43 5 88
4 l80 -3 3 -69z m-528 -6 l0 -70 -80 0 -80 0 0 70 0 70 80 0 80 0 0 -70z"/>
<path d="M1327 5934 c-4 -4 -7 -16 -7 -26 0 -12 -11 -23 -31 -30 -38 -13 -36
-47 4 -66 19 -9 27 -21 27 -38 0 -47 55 -39 62 9 2 12 13 26 26 32 28 12 30
51 2 60 -11 3 -25 18 -32 33 -13 27 -38 39 -51 26z"/>
<path d="M2805 5782 c-6 -4 -16 -19 -22 -34 -8 -18 -20 -28 -33 -28 -33 0 -24
-52 10 -60 17 -4 26 -14 28 -30 5 -34 16 -43 40 -36 13 4 22 17 24 34 2 19 10
28 25 30 23 3 39 34 28 53 -4 5 -18 14 -31 19 -14 6 -24 18 -24 29 0 10 -7 22
-16 25 -19 7 -17 7 -29 -2z"/>
<path d="M7880 5701 c-114 -25 -186 -54 -250 -99 -87 -61 -92 -77 -88 -282 4
-165 6 -180 35 -260 17 -47 33 -92 37 -101 6 -13 -9 -23 -73 -49 -85 -34 -161
-92 -186 -141 -23 -44 -19 -166 7 -236 58 -156 264 -273 551 -314 115 -16 414
-13 528 5 247 40 434 145 498 279 13 26 27 81 32 122 13 102 0 148 -56 202
l-43 41 31 13 c18 7 52 31 75 53 127 117 136 305 20 431 -57 63 -116 89 -198
89 -57 0 -70 7 -70 42 0 33 -63 98 -129 133 -34 18 -105 44 -158 58 -85 22
-123 26 -288 29 -157 3 -205 0 -275 -15z m497 -67 c140 -28 245 -80 279 -138
l17 -29 -40 -38 c-30 -28 -64 -45 -136 -68 -127 -41 -198 -51 -353 -51 -220 0
-426 49 -501 120 -40 38 -41 49 -6 91 51 60 203 114 378 133 74 8 283 -3 362
-20z m508 -263 c114 -51 159 -199 99 -319 -45 -91 -140 -144 -260 -146 -40 0
-75 2 -79 5 -3 4 1 23 9 43 15 36 15 36 76 36 97 0 163 44 191 127 14 45 6 94
-22 134 -28 39 -101 73 -140 65 -27 -5 -29 -4 -29 28 0 18 3 36 7 39 13 14
109 6 148 -12z m-1045 -98 c72 -19 132 -26 246 -30 240 -9 387 18 568 105 13
7 -1 -172 -19 -240 -43 -165 -144 -297 -278 -363 -152 -74 -287 -69 -450 17
-180 95 -297 304 -297 528 l0 69 67 -31 c37 -17 111 -41 163 -55z m991 -52
c40 -40 39 -81 -4 -127 -23 -26 -43 -37 -73 -41 -23 -3 -44 -1 -46 3 -5 7 15
133 28 182 6 24 64 13 95 -17z m-1153 -363 c54 -67 101 -111 165 -156 58 -40
88 -53 150 -66 145 -30 303 -17 398 33 32 16 60 27 65 23 4 -4 4 -2 1 4 -4 7
17 30 49 55 30 23 63 53 73 65 17 21 25 23 108 20 85 -2 93 -4 138 -37 83 -59
84 -76 7 -135 -145 -112 -552 -178 -893 -144 -213 21 -442 99 -502 169 -26 32
-27 34 -11 61 21 34 86 77 163 107 70 27 68 27 89 1z m1181 -274 c-52 -57
-224 -121 -389 -144 -69 -10 -78 -14 -120 -55 -25 -24 -63 -52 -85 -61 -84
-35 -291 -28 -483 17 -165 38 -297 120 -337 209 -21 47 -16 58 17 36 47 -30
204 -87 297 -107 136 -29 468 -37 636 -15 188 25 388 84 455 136 34 25 39 16
9 -16z"/>
<path d="M1420 5506 c-6 -8 -10 -25 -8 -38 2 -19 9 -23 38 -23 31 0 35 3 38
29 5 42 -41 64 -68 32z"/>
<path d="M1216 5499 c-3 -8 -22 -63 -42 -124 -20 -60 -47 -136 -60 -167 l-24
-57 0 -907 c0 -896 0 -907 20 -940 l21 -33 -21 -11 c-18 -10 -20 -20 -20 -135
0 -123 0 -125 29 -157 24 -27 36 -32 88 -36 64 -4 102 9 137 47 16 18 20 41
24 131 4 96 2 113 -15 142 -17 28 -18 36 -6 46 13 13 15 220 13 1521 0 338 -1
344 -24 395 -13 28 -40 103 -61 166 -39 120 -51 143 -59 119z m32 -236 l20
-53 -39 0 c-24 0 -39 5 -39 12 0 15 32 100 36 96 1 -2 11 -27 22 -55z m40
-122 c9 -5 12 -29 10 -82 l-3 -74 -67 -3 -68 -3 0 86 0 85 58 0 c31 0 63 -4
70 -9z m10 -938 l2 -703 -70 0 c-49 0 -70 4 -70 13 0 6 0 320 0 696 0 533 3
687 13 693 6 5 37 7 67 6 l55 -3 3 -702z m-3 -774 c4 -6 4 -26 0 -45 l-6 -35
-62 3 -62 3 -3 43 -3 42 65 0 c36 0 68 -5 71 -11z m25 -153 c0 -8 -4 -18 -10
-21 -6 -3 -10 -48 -10 -101 0 -81 -3 -97 -20 -114 -23 -23 -91 -28 -108 -7 -6
7 -12 57 -15 112 -2 55 -7 110 -11 123 -8 22 -7 22 83 22 73 0 91 -3 91 -14z"/>
<path d="M2842 5034 c-28 -20 -28 -27 6 -80 27 -44 54 -63 60 -45 2 6 14 26
28 46 13 20 24 42 24 50 0 20 -40 45 -70 45 -14 0 -36 -7 -48 -16z"/>
<path d="M2453 4220 c-39 -23 -56 -54 -81 -151 -53 -198 -139 -497 -262 -909
-114 -382 -117 -397 -86 -459 21 -41 50 -54 100 -47 22 3 70 9 105 14 47 6 68
14 82 30 21 26 43 94 140 422 39 135 91 310 114 390 87 292 135 477 135 514 0
27 -7 43 -26 61 -15 14 -31 25 -35 25 -5 0 -9 11 -9 25 0 36 -29 75 -67 91
-44 19 -72 17 -110 -6z m102 -69 c16 -19 15 -26 -24 -168 -23 -81 -43 -153
-45 -159 -5 -14 -106 15 -106 30 0 19 72 262 86 289 18 33 62 37 89 8z m75
-143 c0 -22 -111 -403 -121 -412 -22 -23 -19 10 9 101 17 54 45 149 63 211 18
61 36 112 41 112 4 0 8 -5 8 -12z m-192 -250 c12 -12 17 -58 6 -58 -3 0 -25 5
-50 11 -42 11 -57 32 -37 52 11 12 68 8 81 -5z m-53 -110 c14 -6 25 -19 25
-28 0 -15 -20 -87 -95 -330 -7 -25 -28 -97 -45 -160 -109 -394 -108 -390 -150
-390 -53 0 -56 28 -16 160 19 63 62 212 96 330 51 180 106 363 125 418 5 15
27 15 60 0z m95 -178 c0 -23 -4 -30 -20 -30 -20 0 -25 15 -14 44 11 28 34 18
34 -14z m-46 -132 c-3 -18 -24 -94 -45 -168 -22 -74 -56 -192 -75 -262 -26
-91 -41 -128 -51 -128 -10 0 -14 6 -10 18 2 9 32 116 67 237 34 121 69 246 77
278 10 36 21 57 30 57 11 0 13 -7 7 -32z"/>
<path d="M7435 4229 c-11 -16 -1 -19 13 -3 7 8 8 14 3 14 -5 0 -13 -5 -16 -11z"/>
<path d="M1930 4219 c-14 -6 -40 -24 -57 -41 -35 -34 -39 -45 -151 -428 -136
-463 -155 -528 -170 -585 -8 -35 -26 -73 -42 -90 -32 -36 -37 -47 -96 -240
-83 -273 -144 -490 -144 -515 1 -36 33 -101 66 -131 45 -41 114 -63 182 -56
74 6 115 28 147 75 23 35 117 345 220 727 23 88 62 228 85 310 23 83 54 197
70 255 16 58 56 200 89 317 67 234 73 282 38 334 -43 65 -160 99 -237 68z
m140 -68 c64 -34 69 -65 30 -201 -59 -203 -174 -617 -210 -755 -24 -88 -44
-162 -46 -164 -10 -11 -12 8 -5 39 9 37 16 61 165 598 53 189 96 354 96 368 0
39 -42 74 -89 74 -53 0 -75 -24 -95 -108 -10 -37 -58 -211 -108 -387 -50 -176
-103 -363 -117 -415 -25 -88 -29 -95 -54 -98 -21 -3 -27 1 -27 15 0 19 58 225
160 568 34 116 74 253 90 305 33 118 43 136 83 160 40 25 82 25 127 1z m-30
-119 c0 -19 -72 -296 -139 -532 -21 -74 -55 -198 -76 -275 -21 -77 -41 -144
-45 -148 -5 -5 -18 -4 -30 3 -18 10 -21 17 -16 43 6 30 170 621 220 792 13 44
27 92 30 108 5 20 12 27 31 27 17 0 25 -5 25 -18z m-300 -1017 c56 -29 74 -54
67 -99 -3 -26 -67 -261 -123 -454 l-16 -52 -29 25 c-45 37 -128 58 -200 50
-32 -4 -59 -4 -59 -1 0 18 154 513 163 525 32 38 127 42 197 6z m-183 -607
c36 -15 83 -58 83 -75 0 -18 -7 -17 -74 17 -66 34 -126 39 -181 16 -28 -12
-35 -12 -35 -2 0 14 27 40 50 49 28 10 129 7 157 -5z"/>
<path d="M8996 4115 c-46 -16 -89 -56 -111 -100 -32 -68 -11 -180 41 -226 94
-82 240 -63 306 40 26 41 29 53 26 107 -5 83 -40 137 -111 170 -59 27 -95 29
-151 9z m132 -75 c99 -60 65 -214 -49 -227 -83 -9 -139 44 -139 132 0 30 8 45
39 76 32 32 46 39 77 39 22 0 54 -9 72 -20z"/>
<path d="M1510 4084 c-37 -16 -70 -42 -70 -56 0 -15 64 -48 93 -48 26 0 27 2
27 54 0 30 -3 57 -8 60 -4 2 -23 -2 -42 -10z"/>
<path d="M7667 4085 c-76 -27 -115 -89 -104 -169 3 -22 40 -147 80 -276 41
-129 107 -338 146 -465 120 -386 121 -386 199 -432 l47 -28 427 -3 c408 -3
430 -2 473 17 104 46 110 122 31 391 -91 311 -245 814 -260 852 -23 54 -85
104 -145 117 -81 17 -845 14 -894 -4z m107 -302 c66 -210 165 -533 248 -806
15 -48 31 -78 57 -102 l35 -35 415 0 415 0 -22 -22 -23 -23 -421 -2 c-452 -2
-450 -2 -498 49 -21 23 -43 89 -304 920 -54 172 -58 217 -20 247 15 12 30 21
34 21 4 0 42 -111 84 -247z m819 224 c47 -30 32 13 273 -789 72 -238 85 -290
74 -303 -11 -13 -63 -15 -386 -15 -234 0 -383 4 -400 10 -51 20 -41 -7 -243
645 -71 231 -133 433 -137 448 l-6 28 399 -3 c361 -3 401 -5 426 -21z"/>
<path d="M8404 3757 c-3 -8 14 -42 37 -77 71 -106 62 -198 -23 -250 -60 -36
-118 -23 -186 43 -38 37 -44 40 -57 26 -31 -31 18 -107 90 -140 80 -37 173
-20 231 43 48 50 64 90 64 155 0 71 -41 149 -97 188 -43 29 -52 30 -59 12z"/>
<path d="M9152 3398 c-39 -39 17 -100 58 -63 14 13 18 25 14 39 -11 36 -48 48
-72 24z"/>
<path d="M5754 2574 c-91 -45 -82 -186 14 -215 106 -31 188 73 136 172 -15 30
-66 59 -101 59 -10 0 -32 -7 -49 -16z m86 -64 c11 -11 20 -26 20 -33 0 -23
-31 -57 -52 -57 -27 0 -58 28 -58 52 0 22 34 58 55 58 8 0 24 -9 35 -20z"/>
<path d="M6640 2516 c-153 -53 -220 -82 -220 -95 0 -9 205 -78 283 -95 15 -4
470 -7 1011 -7 l983 0 84 31 c98 35 152 66 147 83 -6 19 -144 83 -229 106 -74
21 -95 21 -1005 21 l-929 -1 -125 -43z m120 -71 c0 -53 -1 -53 -105 -27 l-70
18 75 26 c101 36 100 36 100 -17z m1845 5 l0 -35 -892 -3 -893 -2 0 40 0 40
893 -2 892 -3 0 -35z m136 15 c24 -9 51 -18 59 -21 9 -3 -9 -13 -45 -25 -83
-26 -85 -25 -85 21 0 46 6 48 71 25z"/>
<path d="M2273 2510 c-40 -24 -53 -48 -53 -100 0 -55 22 -94 64 -114 30 -14
87 -16 473 -16 489 0 482 -1 531 70 26 39 28 70 6 115 -30 65 -32 65 -536 65
-431 0 -455 -1 -485 -20z m857 -85 l0 -45 -413 0 c-420 0 -437 1 -437 37 0 7
9 22 20 33 19 19 33 20 425 20 l405 0 0 -45z m100 15 c8 -14 8 -26 0 -40 -17
-32 -30 -23 -30 20 0 43 13 52 30 20z"/>
<path d="M3594 2512 c-64 -41 -71 -139 -15 -196 l31 -31 902 -3 901 -2 42 25
c50 29 95 79 95 105 0 22 -71 87 -116 106 -27 12 -147 14 -672 14 -667 0 -660
0 -675 -42 -6 -17 33 -18 651 -20 l657 -3 33 -24 c31 -22 32 -25 17 -40 -14
-14 -100 -16 -923 -16 l-907 0 -3 33 c-5 46 20 52 218 52 142 0 169 2 174 15
10 28 -43 38 -214 42 -150 4 -168 2 -196 -15z"/>
<path d="M5805 2214 c-22 -8 -82 -23 -133 -34 -51 -11 -101 -24 -110 -29 -10
-5 -70 -16 -134 -25 -117 -15 -168 -30 -152 -46 5 -5 61 -16 124 -25 63 -9
151 -25 195 -35 44 -10 102 -21 130 -25 27 -4 54 -14 61 -23 11 -16 122 -17
1439 -17 l1427 0 23 28 c24 27 25 27 150 27 126 0 157 7 182 39 19 25 15 76
-8 105 -20 26 -21 26 -161 26 -137 0 -141 1 -164 25 l-23 25 -1403 0 c-1213
-1 -1408 -3 -1443 -16z m2743 -100 c2 -26 1 -58 -3 -71 l-5 -23 -1304 0 -1304
0 -4 68 c-2 37 1 70 6 74 6 4 595 5 1311 3 l1300 -4 3 -47z m-2688 -20 c0 -41
-4 -63 -10 -59 -5 3 -10 33 -10 66 0 33 4 59 10 59 6 0 10 -29 10 -66z m2770
5 c0 -31 -4 -48 -10 -44 -5 3 -10 26 -10 51 0 24 5 44 10 44 6 0 10 -23 10
-51z m-2850 -4 c0 -38 -3 -45 -19 -45 -38 0 -51 11 -51 44 0 40 6 46 42 46 27
0 28 -2 28 -45z m3170 5 c0 -19 -7 -20 -120 -20 -113 0 -120 1 -120 20 0 19 7
20 120 20 113 0 120 -1 120 -20z"/>
<path d="M1882 2173 c-86 -42 -82 -186 6 -222 20 -9 96 -11 250 -9 l222 3 31
31 c64 64 41 172 -41 201 -23 8 -107 12 -235 12 -165 0 -206 -2 -233 -16z
m463 -69 c9 -9 15 -28 13 -43 -3 -25 -6 -26 -88 -33 -47 -3 -144 -6 -216 -7
-114 -1 -135 1 -155 18 -21 17 -22 21 -10 50 l13 31 213 0 c184 0 216 -2 230
-16z"/>
<path d="M2755 2181 c-75 -31 -91 -143 -29 -202 l26 -24 1056 -3 1057 -3 60
22 c33 12 89 37 125 54 36 18 73 35 83 39 23 7 22 26 -2 26 -11 0 -35 9 -54
20 -19 11 -71 34 -116 50 l-82 30 -1052 -1 c-579 0 -1061 -4 -1072 -8z m305
-91 l0 -40 -149 0 c-126 0 -150 2 -155 16 -7 18 8 50 26 57 7 3 73 6 146 6
l132 1 0 -40z m110 0 c0 -33 -3 -40 -20 -40 -17 0 -20 7 -20 40 0 33 3 40 20
40 17 0 20 -7 20 -40z m98 -2 c-4 -51 -24 -62 -30 -15 -5 43 0 57 18 57 12 0
14 -10 12 -42z m1570 0 l-3 -43 -42 0 c-24 1 -360 2 -748 3 l-705 2 0 33 c0
19 3 37 7 40 3 4 341 7 750 7 l744 0 -3 -42z m141 2 c11 -6 10 -10 -5 -18 -10
-5 -30 -12 -44 -13 -21 -3 -26 1 -28 23 -3 26 -2 27 30 22 18 -4 39 -10 47
-14z"/>
</g>
</svg>
