<?xml version="1.0" standalone="no"?>
<!DOCTYPE svg PUBLIC "-//W3C//DTD SVG 20010904//EN"
 "http://www.w3.org/TR/2001/REC-SVG-20010904/DTD/svg10.dtd">
<svg version="1.0" xmlns="http://www.w3.org/2000/svg"
 width="1024.000000pt" height="1024.000000pt" viewBox="0 0 1024.000000 1024.000000"
 preserveAspectRatio="xMidYMid meet">

<g transform="translate(0.000000,1024.000000) scale(0.100000,-0.100000)"
fill="#46464c" stroke="none">
<path d="M7324 9156 c-135 -31 -267 -100 -341 -179 -25 -27 -43 -50 -41 -52 2
-2 24 3 48 11 65 22 170 29 237 15 l58 -13 48 46 c55 53 81 61 45 14 -166
-219 -77 -483 199 -588 37 -15 92 -25 154 -29 100 -6 129 -18 129 -53 0 -37
-31 -85 -65 -104 -44 -24 -48 -44 -44 -227 4 -138 5 -145 37 -209 19 -39 50
-81 72 -101 23 -19 40 -43 40 -55 0 -59 -78 -318 -151 -502 -70 -178 -231
-500 -249 -500 -7 0 -23 66 -42 175 -16 98 -13 415 6 558 l15 117 -33 107 -34
108 69 73 c38 41 69 78 69 82 0 22 -24 16 -96 -25 -160 -92 -226 -88 -296 18
-87 130 -126 242 -134 377 -4 54 -14 118 -25 148 -21 59 -25 152 -8 201 10 27
25 39 104 76 52 25 102 56 113 70 23 30 57 154 44 167 -16 16 -116 26 -169 18
-108 -18 -195 -74 -261 -169 -86 -125 -126 -259 -120 -409 4 -119 28 -177 111
-269 55 -62 77 -109 77 -166 0 -43 22 -28 41 28 l17 48 18 -29 c25 -37 25
-105 0 -133 -30 -34 -79 -45 -115 -27 -16 9 -34 24 -39 33 -8 14 -15 9 -41
-33 -64 -99 -81 -227 -45 -340 27 -89 108 -165 246 -232 110 -53 138 -78 138
-123 0 -29 -27 -59 -53 -59 -9 0 -17 -4 -17 -9 0 -24 87 -28 130 -6 59 31 109
132 96 197 -5 25 2 37 56 90 l61 60 -7 -86 c-11 -140 -7 -364 9 -471 29 -190
72 -319 104 -313 33 7 227 358 317 575 78 187 164 472 164 541 0 27 2 27 159
2 169 -28 207 -38 275 -73 95 -50 160 -152 193 -302 17 -80 13 -303 -12 -740
-43 -725 -74 -960 -136 -1039 -18 -23 -113 -86 -130 -86 -3 0 -9 31 -12 68 -9
115 -71 245 -122 258 -14 4 -29 4 -32 0 -3 -3 8 -34 25 -68 37 -76 51 -134 52
-211 0 -74 -22 -121 -73 -158 -55 -40 -92 -44 -168 -21 l-64 19 75 13 c126 21
144 33 154 105 19 122 -80 278 -184 292 -22 3 -40 10 -40 14 0 22 86 69 156
85 70 15 92 15 158 -2 19 -5 26 -2 26 9 0 26 -57 65 -106 73 l-46 7 6 66 c3
36 13 269 22 516 17 465 16 505 -21 505 -9 0 -20 -12 -26 -27 -9 -25 -47 -815
-49 -1035 0 -24 -9 -32 -60 -58 -72 -36 -133 -89 -150 -130 -10 -23 -23 -32
-64 -44 -149 -44 -338 -67 -387 -48 -19 8 -32 28 -54 84 -41 107 -214 524
-274 660 -62 143 -81 212 -81 300 0 62 -2 69 -22 77 -13 5 -27 5 -32 0 -6 -5
-12 -49 -14 -97 -5 -111 5 -149 108 -392 92 -215 161 -390 154 -390 -13 0
-131 87 -164 122 -52 53 -98 61 -128 23 -12 -15 -22 -38 -22 -51 0 -13 -4 -24
-10 -24 -5 0 -10 4 -10 9 0 4 -25 53 -55 108 -30 56 -55 112 -55 125 0 13 11
90 25 171 13 80 38 242 55 359 33 230 57 344 89 429 26 68 26 66 -7 83 -28 14
-28 14 -54 -32 -47 -86 -62 -154 -123 -576 -24 -170 -46 -311 -49 -313 -2 -2
-28 42 -57 98 -35 66 -66 111 -88 128 l-34 26 -263 3 -262 3 -28 -24 c-46 -40
-39 -77 53 -267 111 -231 111 -230 87 -243 -10 -5 -40 -32 -65 -58 -26 -27
-53 -49 -60 -49 -28 -1 -95 -38 -126 -70 l-33 -34 0 46 c0 25 -7 65 -15 88
-15 42 -82 140 -96 140 -4 0 -9 -38 -10 -84 -4 -86 -13 -112 -29 -86 -20 31
-8 104 61 378 18 73 27 92 41 92 23 0 23 -15 -2 -119 -11 -46 -18 -86 -16 -88
11 -11 86 294 86 347 0 56 -26 96 -76 120 -40 20 -59 20 -887 18 l-846 -3 -41
-40 c-49 -48 -42 -27 -189 -596 -61 -236 -151 -543 -162 -554 -5 -5 -51 -12
-101 -14 -80 -3 -94 -1 -119 18 l-29 21 -17 -20 c-27 -32 -47 -26 -39 12 8 39
4 37 62 51 42 10 50 16 59 45 5 19 16 32 26 32 9 0 38 11 64 26 34 17 51 22
58 15 16 -16 47 -13 47 4 0 8 -13 21 -30 30 -22 11 -30 23 -30 41 0 21 4 25
18 19 43 -17 72 -18 72 -2 0 8 2 22 5 29 4 10 -7 18 -34 27 -40 11 -107 60
-85 61 6 0 31 -7 54 -15 62 -22 77 -19 88 15 6 16 8 32 4 34 -36 22 -509 107
-544 99 -13 -4 -60 -39 -104 -79 l-81 -73 -52 6 c-46 5 -51 4 -51 -14 0 -11
11 -25 25 -31 56 -26 13 -38 -115 -33 -90 4 -609 83 -631 97 -13 8 -11 124 6
249 32 242 63 663 56 757 -1 22 -38 33 -56 18 -9 -8 -15 -30 -15 -55 0 -53
-47 -584 -60 -674 -5 -38 -18 -77 -30 -93 -20 -27 -20 -31 -7 -52 17 -25 37
-120 37 -172 0 -28 5 -34 42 -49 51 -20 257 -57 453 -79 77 -9 159 -19 182
-22 l42 -5 -40 -36 c-109 -99 -116 -243 -16 -328 36 -31 38 -35 18 -35 -37 0
-145 30 -162 46 -12 11 -56 14 -210 14 -322 0 -631 25 -689 55 -41 22 -87 76
-114 135 -58 127 -69 385 -41 920 31 596 55 793 109 898 46 89 90 122 236 177
52 19 170 72 262 117 92 45 170 79 173 76 4 -3 -1 -77 -9 -164 -22 -217 -23
-208 22 -235 77 -46 77 -48 27 -87 -25 -19 -45 -40 -45 -47 0 -7 16 -93 35
-191 34 -178 113 -645 135 -799 27 -187 53 -331 62 -342 25 -31 30 -10 23 100
-14 244 -76 667 -155 1062 l-30 150 60 58 c33 33 60 63 60 67 0 5 -26 25 -58
44 -31 20 -63 39 -70 44 -10 7 -9 46 7 205 11 108 27 212 35 231 9 22 35 48
75 75 90 61 90 61 79 -1 -11 -67 -3 -187 27 -403 46 -325 50 -395 50 -810 0
-220 -2 -499 -5 -620 l-5 -219 74 -13 c41 -7 76 -11 77 -10 4 4 31 368 49 646
16 258 41 519 54 567 7 26 12 29 56 32 26 2 52 -1 57 -6 25 -25 38 -289 36
-679 -2 -216 0 -393 5 -393 4 0 7 4 7 10 0 5 18 20 40 32 l40 23 0 90 c0 91 8
268 35 730 9 138 15 284 15 326 0 42 3 104 6 138 6 56 9 62 33 67 57 13 89 25
109 44 12 11 23 20 26 20 2 0 7 -18 11 -41 7 -40 5 -43 -45 -94 l-52 -53 71
-52 c39 -28 71 -57 71 -63 0 -67 -79 -619 -142 -990 -11 -70 -19 -129 -17
-131 2 -2 18 -6 36 -9 l31 -6 13 72 c6 40 28 173 48 296 l37 225 65 16 c86 22
89 24 89 71 0 34 -3 39 -17 35 -48 -14 -114 -28 -117 -25 -3 2 4 72 14 154 11
83 22 191 26 242 l7 91 -52 34 c-28 18 -51 38 -51 44 0 5 14 23 30 39 35 34
38 64 15 152 -16 58 -16 58 12 110 31 58 24 57 118 22 75 -28 140 -73 175
-120 54 -75 100 -248 164 -616 19 -107 36 -197 39 -199 2 -3 20 5 40 16 23 13
34 27 31 38 -2 9 -13 73 -24 142 -54 313 -104 518 -149 607 -48 97 -136 166
-273 218 -27 10 -48 20 -48 23 0 3 13 46 29 97 17 50 35 131 42 181 9 67 20
104 46 151 34 62 53 158 53 274 0 45 1 46 50 68 58 26 86 58 101 113 12 47 0
119 -32 186 -19 38 -39 55 -39 33 0 -19 -59 -51 -111 -61 -41 -8 -78 -6 -176
10 -202 33 -301 23 -380 -37 -25 -18 -33 -20 -33 -9 0 23 85 91 132 105 55 17
160 15 268 -4 136 -24 216 -17 262 23 21 17 33 71 23 101 -6 21 -7 21 -33 -7
-39 -42 -88 -56 -137 -39 -38 13 -39 15 -39 64 -1 66 -16 82 -66 76 -32 -5
-50 1 -107 34 -197 113 -325 111 -505 -9 -48 -33 -88 -61 -88 -63 0 -2 21 -13
47 -25 93 -41 145 -96 169 -178 l14 -47 -21 25 c-11 14 -35 43 -53 65 -46 56
-140 105 -201 105 -93 0 -171 -65 -201 -166 -14 -50 -16 -92 -10 -308 3 -138
9 -297 12 -352 l7 -102 -44 -27 c-55 -34 -104 -80 -130 -122 -16 -26 -55 -50
-178 -112 -87 -44 -210 -101 -272 -126 -232 -96 -288 -136 -339 -239 -52 -106
-68 -218 -112 -801 -17 -226 -17 -846 0 -942 32 -184 121 -305 252 -343 60
-17 225 -30 412 -32 103 -1 185 -5 182 -7 -3 -3 -19 -10 -37 -16 -66 -21 -35
-72 61 -98 114 -31 617 -103 912 -131 250 -24 904 -56 1282 -63 l337 -6 3 -61
3 -61 296 -3 296 -2 7 31 c3 17 6 46 6 64 l0 32 343 6 c727 13 1468 67 2027
148 310 45 355 60 418 138 23 28 50 46 99 66 187 73 231 159 267 515 9 85 20
220 26 300 5 80 12 179 15 220 17 245 25 443 25 656 0 206 -3 252 -19 317 -33
126 -86 211 -170 273 -45 32 -46 34 -47 91 -1 109 -56 178 -204 259 -165 89
-240 163 -273 268 -26 80 -20 88 16 21 43 -80 138 -171 223 -215 145 -74 241
-152 270 -217 l12 -28 1 38 c2 82 -46 152 -157 230 -130 91 -142 110 -186 302
-19 83 -57 141 -111 172 -52 30 -85 39 -228 63 -145 25 -218 52 -269 98 -33
30 -78 97 -78 117 0 3 16 -13 36 -35 59 -65 142 -99 296 -121 73 -11 161 -28
196 -38 l63 -19 -6 41 c-14 88 -48 205 -79 272 -91 195 -243 292 -471 301 -72
2 -131 -1 -171 -10z m-4149 -597 c22 -6 78 -28 125 -49 99 -46 186 -70 249
-70 l44 0 -6 -116 c-6 -109 -9 -120 -38 -166 -26 -40 -35 -69 -45 -145 -17
-118 -71 -282 -131 -393 -82 -155 -133 -186 -248 -155 -113 30 -228 122 -315
250 -38 57 -48 65 -67 58 -20 -8 -16 -32 16 -98 39 -83 102 -157 177 -211 l64
-46 -32 -44 c-51 -71 -52 -72 -112 -30 -69 47 -148 130 -175 184 -42 82 -54
157 -48 293 3 81 11 139 21 164 16 37 16 38 -14 71 -16 19 -36 47 -43 62 -52
101 -9 231 66 203 37 -14 54 -46 66 -121 8 -48 17 -69 33 -82 13 -10 26 -18
29 -18 3 0 11 24 18 54 15 66 36 96 95 130 93 54 166 166 166 253 0 31 2 33
33 33 17 0 50 -5 72 -11z m-166 -1351 c12 -21 13 -33 3 -67 -15 -47 -41 -65
-83 -56 -36 8 -59 49 -59 105 0 37 3 42 32 55 41 17 86 1 107 -37z m2687 -669
c35 -29 36 -46 5 -137 -49 -142 -141 -445 -141 -464 0 -10 6 -18 13 -18 21 0
65 -52 73 -85 l7 -30 -34 32 c-49 46 -189 101 -189 74 0 -5 29 -35 65 -66 36
-32 65 -61 65 -66 0 -5 -18 -9 -41 -9 -39 0 -99 -26 -99 -42 0 -4 13 -8 28 -8
40 0 58 -25 71 -94 16 -88 15 -106 -9 -106 -18 0 -20 6 -18 51 2 35 -2 53 -12
59 -8 5 -18 6 -21 2 -3 -4 -23 -65 -44 -137 -43 -148 -57 -180 -84 -195 -27
-14 -1615 -14 -1642 0 -27 15 -24 57 12 175 16 55 43 147 59 205 16 58 58 212
94 343 36 130 77 283 91 339 32 123 56 173 90 185 14 4 390 7 835 7 641 -2
814 -4 826 -15z m774 -107 c15 -11 76 -115 150 -258 69 -132 137 -261 152
-287 15 -26 26 -47 24 -47 -1 0 -40 13 -86 30 -103 36 -185 40 -221 11 -30
-24 -33 -89 -5 -120 17 -19 18 -22 2 -45 -22 -34 -20 -83 4 -131 11 -22 20
-53 20 -70 0 -19 11 -42 30 -64 38 -43 38 -51 -5 -51 -50 0 -129 33 -180 75
-57 46 -92 106 -132 225 l-32 94 29 52 c18 30 30 66 30 86 0 43 -33 88 -64 88
-19 0 -36 30 -120 198 -62 126 -95 203 -91 214 8 21 52 24 295 21 152 -2 178
-5 200 -21z m-280 -512 c0 -19 -53 -69 -83 -78 -51 -16 -97 -22 -97 -14 0 12
71 78 109 100 25 16 39 18 53 11 10 -5 18 -14 18 -19z m796 -41 c16 -17 61
-55 99 -84 91 -68 107 -86 145 -167 18 -38 44 -76 60 -88 73 -52 232 -46 497
17 172 42 188 40 234 -17 34 -42 63 -144 49 -170 -13 -24 -25 -26 -290 -60
-190 -23 -234 -28 -310 -35 -30 -2 -107 -9 -171 -15 -79 -7 -140 -7 -195 0
-43 6 -113 15 -155 20 -163 19 -289 62 -289 99 0 17 2 17 73 0 78 -20 127 -24
127 -10 0 16 -24 28 -130 70 -58 22 -115 48 -127 56 -28 19 -32 50 -5 40 39
-15 209 -55 235 -55 29 0 35 11 14 28 -7 6 -67 31 -133 55 -130 48 -174 71
-174 93 0 17 40 11 192 -27 136 -34 138 -34 138 -14 0 10 -47 38 -132 79 -125
59 -198 106 -198 127 0 19 45 7 208 -52 161 -59 339 -118 355 -119 20 0 2 33
-34 62 -108 86 -121 101 -126 151 -3 26 -1 47 4 47 5 0 22 -14 39 -31z m-3655
-15 c83 -19 110 -39 144 -108 22 -44 24 -58 15 -75 -17 -34 -46 -25 -79 23
-33 47 -60 61 -152 75 -55 9 -89 1 -89 -22 0 -7 34 -22 75 -35 62 -19 79 -28
96 -55 11 -18 18 -45 17 -62 -4 -40 -37 -45 -80 -12 -40 30 -124 50 -150 36
-28 -15 -21 -37 15 -44 66 -15 101 -59 85 -107 -12 -35 -46 -37 -101 -8 -46
25 -53 25 -60 1 -3 -14 -20 -22 -60 -31 -74 -15 -107 -41 -107 -85 0 -39 -23
-67 -48 -58 -35 12 -80 53 -96 88 -24 50 -13 88 36 128 22 17 73 73 113 122
40 50 112 128 161 174 l88 83 55 -6 c30 -4 85 -14 122 -22z m2626 -93 c-19
-35 -26 -40 -67 -43 -25 -3 -47 -3 -49 -1 -7 5 32 45 64 64 17 11 40 19 52 19
l21 0 -21 -39z m162 -21 c24 -12 47 -68 34 -81 -14 -14 -163 20 -163 38 0 37
20 53 66 53 25 0 53 -4 63 -10z m-64 -120 c56 -14 125 -56 125 -76 0 -7 -9
-19 -20 -27 -18 -12 -31 -12 -105 6 l-85 21 0 41 c0 45 5 56 23 50 7 -2 35 -9
62 -15z m-225 -107 c0 -60 -3 -138 -7 -175 l-6 -68 -83 0 c-45 0 -85 4 -88 9
-6 9 -56 305 -56 328 0 10 29 13 120 13 l120 0 0 -107z m333 -56 c30 -19 35
-48 12 -67 -12 -10 -33 -8 -109 9 -94 22 -94 22 -100 57 -4 19 -5 38 -2 43 8
12 168 -21 199 -42z m-625 -34 c5 -10 14 -52 21 -93 7 -41 17 -90 23 -107 l10
-33 149 0 150 0 17 29 16 29 41 -21 c34 -19 57 -22 165 -23 108 -1 135 -4 202
-27 92 -32 108 -33 234 -7 147 30 312 36 474 16 120 -14 160 -15 355 -3 121 7
249 10 285 7 l65 -5 -65 -13 c-137 -26 -559 -62 -980 -83 -205 -10 -2791 -13
-3045 -3 -298 11 -845 65 -845 84 0 4 23 10 50 12 28 3 58 13 69 22 16 14 24
15 72 4 42 -10 310 -13 1189 -13 1086 0 1137 1 1172 19 45 22 71 61 93 141 9
33 18 66 20 73 6 18 53 15 63 -5z m865 -82 c28 -10 87 -26 130 -35 42 -10 77
-21 77 -26 0 -15 -104 -43 -160 -43 -35 0 -74 8 -107 23 -48 20 -53 25 -53 55
0 18 -3 48 -7 66 l-6 34 36 -28 c21 -15 61 -36 90 -46z m-332 23 c98 -18 119
-28 119 -54 0 -53 -180 -38 -201 17 -9 25 -12 53 -5 53 2 0 41 -7 87 -16z
m-2481 -49 l0 -35 -132 1 c-176 0 -445 22 -459 36 -29 29 4 33 297 33 l294 0
0 -35z m2275 -279 c-77 -12 -1387 -12 -1480 0 -46 6 210 9 735 9 537 0 784 -3
745 -9z"/>
<path d="M4054 6492 c-6 -4 -16 -16 -21 -27 -15 -27 -47 -175 -40 -182 13 -12
25 10 47 84 12 43 27 83 32 89 6 9 182 11 681 7 370 -2 696 -2 725 2 35 4 52
11 52 21 0 12 -104 14 -732 14 -403 0 -738 -4 -744 -8z"/>
<path d="M4750 6211 c-106 -15 -210 -93 -253 -190 -44 -101 -16 -243 63 -315
47 -42 108 -65 121 -45 13 21 6 32 -28 41 -43 11 -99 77 -117 139 -21 68 -20
87 4 152 51 135 216 213 335 158 117 -54 162 -199 101 -325 -22 -45 -39 -63
-92 -98 -86 -57 -86 -89 0 -53 96 40 170 159 169 270 -2 174 -135 291 -303
266z"/>
<path d="M4736 6104 c-9 -8 -16 -30 -16 -49 0 -31 -2 -33 -44 -39 -43 -7 -82
-36 -86 -66 -5 -35 0 -42 25 -38 27 6 27 5 55 -109 10 -40 13 -42 56 -49 25
-3 60 -2 77 2 29 8 34 17 55 82 22 68 25 72 53 72 26 0 29 3 29 33 0 41 -25
66 -74 74 -32 5 -36 9 -36 35 0 45 -17 68 -50 68 -16 0 -36 -7 -44 -16z"/>
<path d="M6068 6414 c-42 -12 -26 -84 23 -104 21 -9 29 -20 31 -42 3 -35 27
-54 53 -44 16 6 16 8 1 29 -27 37 -29 47 -12 66 21 23 20 44 -1 70 -18 21 -64
33 -95 25z m56 -39 c19 -30 20 -35 3 -35 -24 0 -51 26 -44 44 9 23 22 20 41
-9z"/>
<path d="M5193 8808 c-58 -72 -66 -159 -27 -273 14 -41 24 -80 22 -87 -3 -7
-19 9 -36 35 -39 56 -67 77 -105 77 -82 0 -17 -123 88 -167 47 -19 55 -33 55
-100 l0 -41 -58 57 c-66 67 -124 93 -149 68 -20 -20 -3 -73 35 -110 31 -30
107 -66 138 -67 18 0 22 -8 28 -56 7 -61 3 -74 -18 -59 -8 6 -47 34 -87 63
-64 46 -79 52 -114 50 -35 -3 -40 -6 -43 -29 -7 -57 101 -133 206 -146 l52 -6
0 -63 0 -63 -47 28 c-195 118 -225 129 -253 96 -18 -21 -4 -48 46 -95 56 -52
111 -76 192 -85 l62 -7 0 -108 0 -108 -77 78 c-63 63 -96 86 -173 123 -134 65
-201 80 -328 75 -56 -3 -108 -10 -114 -16 -7 -7 -2 -27 17 -69 157 -335 179
-365 313 -415 67 -26 99 -45 144 -87 32 -29 57 -56 54 -58 -3 -3 -31 11 -63
31 -80 49 -135 66 -212 66 -74 -1 -176 -35 -176 -60 0 -24 135 -130 215 -169
l75 -36 180 0 180 0 60 33 c33 18 96 62 140 98 44 36 114 82 156 104 82 42
135 93 172 167 22 43 97 242 97 256 0 16 -130 -69 -166 -108 -23 -24 -71 -102
-108 -172 -62 -121 -135 -223 -158 -223 -6 0 -4 8 5 18 28 31 84 138 117 223
48 124 62 149 122 206 62 58 142 101 246 133 40 12 72 23 72 25 0 2 -29 13
-65 25 -191 63 -452 -13 -607 -179 -34 -36 -59 -58 -55 -48 4 10 7 63 7 117
l0 98 48 7 c96 14 196 74 239 144 28 45 28 47 -1 66 -22 15 -28 15 -61 1 -20
-9 -80 -49 -134 -90 l-97 -73 -3 68 -2 68 68 20 c85 25 157 70 178 111 20 39
7 60 -39 60 -36 0 -57 -13 -143 -88 l-63 -54 0 60 c0 60 0 61 34 72 128 42
249 186 172 206 -40 10 -101 -32 -174 -121 l-32 -40 0 55 0 55 46 24 c58 31
136 117 132 145 -2 15 -11 22 -34 24 -39 4 -83 -31 -120 -95 -15 -24 -29 -42
-32 -39 -3 3 10 49 28 102 37 111 37 166 -2 237 -24 44 -48 57 -65 35z m-288
-1061 c89 -46 174 -136 224 -236 23 -45 41 -87 39 -93 -2 -5 -33 32 -70 84
-37 51 -84 109 -105 129 -47 44 -129 109 -137 109 -4 0 2 -17 13 -39 11 -21
34 -93 51 -160 31 -125 65 -227 83 -248 5 -7 5 -13 1 -13 -12 0 -70 88 -88
136 -9 22 -32 102 -52 179 -19 77 -42 153 -49 168 -13 27 -13 28 8 21 12 -3
49 -20 82 -37z m688 -37 c-3 -11 -29 -31 -61 -47 -76 -38 -161 -119 -219 -209
-26 -41 -56 -85 -65 -97 -17 -21 -17 -21 -7 18 36 135 135 262 251 320 82 41
109 45 101 15z"/>
<path d="M4611 8417 c-8 -8 -5 -17 11 -34 36 -38 61 -27 38 16 -12 24 -35 32
-49 18z"/>
<path d="M4510 8326 c0 -8 16 -28 36 -45 29 -26 39 -30 50 -20 13 10 10 17
-18 46 -33 34 -68 44 -68 19z"/>
<path d="M5746 8305 c-9 -14 -14 -30 -11 -35 11 -18 34 -10 51 16 15 22 15 27
3 35 -21 13 -25 11 -43 -16z"/>
<path d="M4440 8230 c-9 -16 -6 -22 20 -35 17 -9 35 -13 40 -10 13 8 -5 42
-30 55 -15 8 -21 6 -30 -10z"/>
<path d="M5827 8213 c-15 -14 -7 -43 12 -43 26 0 36 17 21 35 -14 16 -23 19
-33 8z"/>
<path d="M4373 8114 c-7 -18 20 -44 44 -44 23 0 28 32 8 46 -25 19 -44 18 -52
-2z"/>
<path d="M6013 8013 c-18 -7 -16 -32 2 -39 18 -7 45 12 45 32 0 14 -23 17 -47
7z"/>
<path d="M4316 7995 c-3 -8 3 -19 14 -25 29 -16 50 -12 50 9 0 30 -53 44 -64
16z"/>
<path d="M6073 7774 c-3 -8 -1 -20 5 -26 16 -16 42 -2 42 22 0 24 -38 28 -47
4z"/>
<path d="M4270 7755 c0 -22 4 -26 23 -23 14 2 22 10 22 23 0 13 -8 21 -22 23
-19 3 -23 -1 -23 -23z"/>
<path d="M6070 7535 c0 -22 4 -26 23 -23 14 2 22 10 22 23 0 13 -8 21 -22 23
-19 3 -23 -1 -23 -23z"/>
<path d="M4276 7531 c-8 -13 4 -41 18 -41 22 0 39 18 33 34 -7 17 -42 22 -51
7z"/>
<path d="M8293 7459 c-54 -26 -99 -78 -129 -146 -28 -64 -64 -232 -64 -302 0
-50 1 -51 29 -51 29 0 30 1 36 68 11 112 25 195 41 244 22 66 84 134 145 155
54 19 59 27 30 43 -28 14 -40 13 -88 -11z"/>
<path d="M1783 7413 c-16 -6 -17 -33 -2 -33 5 0 35 -12 65 -27 72 -35 164
-134 209 -224 20 -39 42 -69 50 -69 49 0 -36 214 -113 287 -56 53 -161 86
-209 66z"/>
<path d="M3640 7413 c0 -5 10 -52 22 -105 18 -83 23 -96 36 -86 28 24 -10 198
-44 198 -8 0 -14 -3 -14 -7z"/>
<path d="M4324 7335 c-10 -24 14 -47 37 -34 23 12 25 35 3 43 -24 9 -34 7 -40
-9z"/>
<path d="M6024 7335 c-8 -19 3 -35 26 -35 19 0 30 17 23 38 -6 17 -42 15 -49
-3z"/>
<path d="M5595 7268 c-39 -15 -61 -28 -184 -118 l-102 -75 68 -8 c97 -12 250
-3 297 17 21 9 72 39 112 66 40 28 78 50 84 50 28 0 3 24 -52 50 -51 24 -76
30 -128 29 -36 0 -78 -5 -95 -11z m95 -73 c0 -14 -89 -45 -129 -45 -59 0 -43
15 34 34 66 16 95 19 95 11z"/>
<path d="M6932 6985 c-15 -73 -15 -107 0 -140 15 -33 46 -33 54 1 8 32 -13
156 -30 179 -11 15 -14 10 -24 -40z"/>
<path d="M5599 7024 c-13 -4 -18 -33 -28 -152 -7 -81 -14 -157 -15 -169 -3
-20 1 -23 34 -23 l38 0 7 83 c3 45 7 122 8 172 2 93 -1 100 -44 89z"/>
<path d="M4790 6888 c0 -73 3 -150 6 -170 6 -36 8 -38 45 -38 l39 0 -5 53
c-12 115 -25 260 -25 273 0 9 -11 14 -30 14 l-30 0 0 -132z"/>
<path d="M4910 6980 l0 -40 310 0 310 0 0 40 0 40 -310 0 -310 0 0 -40z"/>
<path d="M3636 6918 c-2 -18 -12 -100 -20 -183 -23 -211 -50 -333 -103 -460
-50 -119 -54 -151 -32 -247 l13 -56 73 -22 c77 -23 114 -23 121 -1 3 9 -1 11
-14 7 -30 -9 -44 7 -46 54 -1 37 3 47 28 66 16 13 41 29 56 35 16 6 28 15 28
20 0 17 -61 9 -109 -15 -75 -39 -92 -5 -46 98 48 109 92 334 120 611 8 81 -4
119 -38 123 -23 3 -26 -1 -31 -30z"/>
<path d="M463 6430 c-84 -51 -86 -172 -6 -398 30 -84 67 -127 117 -136 41 -8
37 10 66 -261 37 -338 170 -1286 187 -1332 9 -25 23 -33 60 -33 26 0 36 -6 48
-31 9 -17 14 -33 11 -36 -7 -7 -125 16 -149 29 -28 15 -57 -16 -57 -62 0 -47
33 -85 86 -99 71 -19 307 -53 424 -61 l115 -8 150 -72 c83 -40 207 -96 277
-125 l127 -53 16 48 c16 48 49 89 62 77 3 -4 1 -42 -5 -85 -17 -107 -16 -130
7 -137 18 -5 17 -8 -5 -69 -44 -121 -74 -361 -74 -586 1 -187 5 -227 72 -593
48 -265 53 -287 72 -287 11 0 130 21 264 47 l244 47 -6 46 c-3 25 -9 216 -12
425 -7 402 0 572 37 865 30 241 35 382 14 460 -26 102 -81 201 -197 353 -59
78 -108 148 -108 155 -1 43 162 -115 256 -249 l53 -76 88 -18 c48 -10 93 -21
98 -24 13 -8 -39 -18 -97 -20 -27 0 -48 -6 -48 -11 0 -6 7 -40 16 -76 l17 -65
101 6 c56 4 189 18 295 31 179 22 217 23 332 9 32 -4 38 -2 43 18 7 31 66 90
121 123 58 33 171 74 210 74 40 0 27 -10 -91 -69 -161 -79 -189 -112 -199
-225 -3 -36 -17 -103 -31 -148 -69 -229 -148 -565 -179 -758 -8 -52 -28 -169
-45 -260 -16 -90 -30 -172 -30 -181 0 -12 38 -30 153 -70 83 -29 193 -70 244
-90 l92 -37 80 246 c321 992 439 1434 428 1609 -8 135 -74 246 -202 341 -71
53 -312 171 -481 236 -162 62 -274 89 -499 120 -105 15 -281 40 -393 56 -111
17 -209 30 -216 30 -8 0 -19 -20 -26 -50 -16 -65 -60 -130 -123 -181 -64 -50
-87 -63 -307 -159 -318 -138 -423 -217 -616 -459 -48 -60 -81 -81 -129 -81
-167 0 -313 306 -249 521 23 76 51 130 266 505 l189 331 -13 67 -14 66 -28
-57 c-15 -32 -88 -161 -161 -288 -166 -289 -283 -499 -299 -536 -11 -25 -17 5
-60 279 -41 261 -126 844 -126 863 0 8 92 -9 101 -19 4 -4 14 -61 23 -127 61
-479 101 -753 109 -762 2 -1 23 34 46 80 l43 82 -56 354 c-31 195 -55 356 -52
358 2 2 28 1 58 -3 l56 -6 12 -112 c14 -136 48 -379 58 -424 l7 -33 44 84 45
84 -18 114 c-9 63 -24 149 -32 193 -8 43 -14 80 -14 83 0 2 50 1 110 -3 l110
-7 0 214 c0 118 3 247 6 287 l6 72 -48 1 c-27 1 -107 3 -179 4 -159 4 -283 18
-439 50 -145 31 -210 32 -253 5z m2122 -1579 c-24 -23 -205 -112 -205 -101 0
22 68 78 112 93 48 17 107 22 93 8z m445 -151 l55 -2 -70 -20 c-80 -23 -287
-30 -307 -10 -35 35 34 42 322 32z m513 -267 c-46 -42 -112 -135 -127 -181
-13 -38 -21 -49 -33 -45 -25 10 -11 83 27 138 18 26 53 60 78 76 52 33 88 40
55 12z m-575 -39 c21 -6 31 -38 15 -47 -15 -8 -73 14 -73 27 0 25 16 31 58 20z
m168 -38 c17 -13 17 -16 4 -30 -28 -27 -94 3 -74 35 8 14 48 11 70 -5z m-1433
-10 c18 -14 23 -41 8 -51 -15 -9 -61 17 -61 35 0 32 23 39 53 16z m1575 -12
c12 -4 22 -14 22 -25 0 -24 -14 -31 -45 -23 -18 4 -25 13 -25 30 0 25 9 28 48
18z m-1453 -50 c44 -29 22 -58 -29 -38 -16 6 -22 35 -9 47 9 10 10 9 38 -9z
m136 -62 c14 -12 20 -25 16 -35 -10 -27 -67 -2 -67 29 0 29 19 31 51 6z m99
-54 c0 -10 -127 -138 -137 -138 -13 0 2 53 22 80 41 55 115 92 115 58z"/>
<path d="M9545 6429 c-185 -37 -308 -49 -567 -51 l-258 -3 0 -45 c0 -95 49
-321 98 -450 l28 -75 108 2 c98 3 107 1 102 -15 -3 -9 -17 -90 -31 -179 l-26
-161 47 -94 48 -93 8 50 c10 67 58 466 58 486 0 13 15 18 61 23 34 4 63 6 64
4 2 -2 -3 -39 -10 -83 -26 -147 -85 -563 -101 -707 -8 -79 -22 -174 -30 -211
-8 -38 -19 -112 -25 -165 -21 -194 -57 -294 -139 -385 l-45 -50 165 6 c167 6
276 24 291 48 10 16 22 89 60 344 39 261 138 987 164 1207 l7 57 41 7 c75 12
109 69 164 274 18 67 24 108 20 142 -16 132 -89 161 -302 117z m-41 -621 c-12
-58 -39 -235 -115 -758 -26 -177 -54 -359 -101 -645 -6 -38 -14 -73 -17 -77
-4 -4 -25 -4 -47 0 l-40 7 18 115 c23 153 112 784 138 985 11 88 28 216 38
285 l17 125 55 12 c30 6 58 12 61 12 4 1 1 -27 -7 -61z"/>
<path d="M8690 5920 c0 -147 46 -276 216 -616 103 -205 117 -238 121 -295 5
-62 -6 -129 -27 -159 -9 -13 -13 -11 -27 10 -35 54 -161 167 -219 197 -82 44
-152 60 -325 78 l-147 16 -47 -30 c-27 -17 -69 -37 -94 -45 -107 -35 -446 -81
-971 -131 -331 -32 -383 -41 -419 -71 -40 -33 -52 -68 -111 -329 -110 -484
-266 -945 -481 -1417 -27 -59 -49 -111 -49 -116 0 -5 26 -19 58 -32 88 -35
239 -115 315 -165 38 -25 70 -45 72 -45 10 0 294 535 376 710 l64 135 6 270
c5 245 8 276 28 332 26 71 81 138 146 180 25 15 45 34 45 42 0 7 -16 40 -36
73 -62 102 -4 95 65 -8 l30 -46 138 -3 c165 -2 219 -15 495 -115 466 -170 717
-201 905 -113 134 63 237 255 232 435 -2 68 1 90 18 123 45 87 56 225 24 316
-10 30 -70 158 -132 284 -74 149 -139 297 -183 420 -38 105 -72 194 -77 200
-5 5 -9 -31 -9 -85z m43 -953 c60 -31 160 -129 170 -166 7 -29 2 -27 -46 18
-52 49 -115 97 -189 144 -32 20 -58 39 -58 42 0 11 70 -10 123 -38z m231 -351
c-3 -14 -24 -41 -45 -60 -111 -95 -361 -111 -764 -49 -110 17 -135 26 -135 50
0 18 11 17 225 -11 61 -8 171 -18 245 -22 224 -11 348 17 426 97 40 41 60 40
48 -5z"/>
<path d="M1695 5861 c-41 -10 -66 -24 -93 -54 -19 -20 -22 -31 -17 -61 8 -40
20 -47 30 -16 9 29 88 86 148 106 51 18 51 18 22 25 -39 9 -53 9 -90 0z"/>
<path d="M1880 5799 c-95 -11 -161 -57 -189 -132 -7 -19 -6 -28 4 -37 11 -9
26 -2 69 34 54 44 121 71 191 78 24 2 30 8 30 27 0 31 -29 39 -105 30z"/>
<path d="M1270 5718 c0 -12 5 -51 12 -87 l11 -66 34 70 c45 95 44 105 -12 105
-39 0 -45 -3 -45 -22z"/>
<path d="M8870 5737 c0 -7 58 -138 63 -144 4 -3 7 7 7 24 0 17 3 51 6 77 l7
46 -42 0 c-22 0 -41 -1 -41 -3z"/>
<path d="M1436 5289 c-20 -29 -15 -37 52 -87 98 -73 350 -182 388 -168 8 3 14
18 14 34 0 31 -6 36 -115 77 -79 30 -170 75 -246 125 -34 22 -66 40 -70 40 -4
0 -15 -10 -23 -21z"/>
<path d="M8660 5272 c0 -9 293 -302 303 -302 17 0 5 49 -22 92 -31 49 -87 97
-199 172 -71 47 -82 52 -82 38z"/>
<path d="M2217 5012 c-23 -25 -21 -58 3 -82 39 -39 100 -14 100 43 0 52 -68
78 -103 39z"/>
<path d="M5000 4609 l0 -151 29 -29 c16 -16 37 -29 45 -29 27 0 18 -18 -11
-22 -51 -6 -51 -87 -1 -104 42 -14 191 -5 210 13 38 34 15 93 -37 93 -18 0
-37 5 -40 10 -3 6 3 10 15 10 29 0 77 26 90 49 5 11 10 85 10 165 l0 146 -155
0 -155 0 0 -151z"/>
<path d="M7300 4386 c-111 -32 -176 -86 -212 -174 -21 -53 -23 -75 -26 -327
-5 -325 4 -478 68 -1170 21 -233 36 -565 34 -798 l0 -128 -36 -29 c-26 -22
-42 -48 -62 -105 -65 -183 -126 -285 -241 -405 -74 -77 -115 -133 -115 -158 0
-5 23 -19 52 -33 47 -22 64 -24 197 -24 203 0 279 22 432 122 45 29 106 58
150 71 41 12 90 30 109 40 l35 17 -2 110 c-3 146 -28 327 -52 379 -24 50 -41
259 -22 270 7 5 11 54 11 144 0 75 9 281 20 457 24 383 25 687 5 840 -8 61
-22 169 -30 240 -9 72 -24 169 -34 218 -10 48 -15 87 -11 87 10 0 76 -73 82
-90 2 -8 30 4 82 36 l78 48 186 -17 c103 -10 237 -22 297 -28 137 -14 460 -6
620 15 227 30 510 78 537 92 15 8 32 23 38 33 14 27 13 84 -3 105 -13 18 -16
18 -69 -2 -62 -23 -283 -52 -399 -52 -42 0 -130 -9 -195 -21 -309 -54 -529
-24 -944 133 -292 110 -456 139 -580 104z m199 -590 c16 -40 51 -267 66 -423
18 -181 19 -326 3 -501 -10 -120 -13 -133 -30 -130 -17 3 -19 21 -22 333 -3
329 -9 408 -51 644 -8 46 -12 88 -9 92 10 17 35 9 43 -15z m46 -1162 c0 -42
-3 -49 -20 -49 -24 0 -31 37 -15 79 16 43 35 27 35 -30z m-5 -153 c0 -47 -13
-81 -31 -81 -15 0 -19 7 -19 34 0 19 3 41 6 50 9 23 44 20 44 -3z m-16 -523
c4 -57 14 -135 22 -175 14 -69 14 -74 -5 -112 -12 -22 -30 -42 -41 -46 -33
-10 -92 27 -130 82 -37 54 -75 83 -109 83 -20 0 -21 5 -21 98 0 53 3 114 6
135 l7 37 132 0 132 0 7 -102z"/>
<path d="M5083 4210 c-74 -33 -106 -115 -77 -192 14 -37 18 -125 28 -623 13
-647 14 -1888 2 -1951 l-8 -40 -156 -28 c-155 -28 -276 -49 -562 -100 -226
-40 -317 -49 -420 -43 -92 5 -298 39 -470 77 -47 10 -121 26 -165 35 -44 9
-133 30 -199 46 -65 16 -120 28 -121 27 -2 -2 -5 -14 -7 -28 -3 -22 3 -27 47
-41 130 -43 819 -179 904 -179 35 0 38 -2 34 -24 -6 -31 29 -56 79 -56 38 0
246 29 403 56 337 58 650 101 679 93 41 -12 133 -11 156 1 13 7 136 -9 437
-56 569 -88 674 -101 707 -86 32 14 40 33 32 68 -9 35 -45 48 -201 73 -71 12
-213 37 -315 56 -102 19 -277 50 -389 70 -113 19 -207 37 -209 40 -21 21 -43
325 -24 325 6 0 61 -21 124 -46 176 -71 472 -157 727 -210 81 -17 84 -17 97 1
8 11 13 24 11 29 -2 5 -77 26 -168 46 -307 69 -496 126 -706 216 l-93 39 0 38
c0 20 4 37 8 37 5 0 49 -18 99 -39 160 -70 256 -99 497 -151 130 -28 257 -60
282 -70 25 -11 49 -20 54 -20 4 0 17 46 28 103 43 207 54 364 28 386 -22 19
-65 2 -89 -35 -18 -28 -28 -34 -58 -34 -73 0 -149 83 -149 165 0 56 -29 106
-79 134 -40 22 -41 24 -27 45 9 11 52 76 97 144 59 88 87 122 102 122 33 0
142 -59 186 -101 28 -27 41 -48 41 -66 0 -15 -18 -73 -40 -129 -46 -117 -47
-131 -21 -175 l20 -32 16 39 c114 277 117 282 145 288 24 4 37 22 89 125 l61
119 -68 52 c-96 73 -399 218 -416 199 -2 -2 -34 -65 -71 -139 -53 -106 -65
-138 -57 -151 9 -14 -2 -36 -55 -116 -93 -139 -127 -178 -191 -222 -31 -21
-89 -74 -129 -118 -76 -84 -143 -128 -241 -157 -43 -12 -54 -13 -58 -2 -3 7
-1 438 5 957 9 923 10 945 31 1004 26 74 20 123 -22 171 -48 54 -122 67 -195
34z"/>
<path d="M3224 3973 l-41 -4 9 -61 c12 -90 55 -275 82 -354 l23 -69 36 115
c53 166 52 163 19 275 -33 111 -28 108 -128 98z"/>
<path d="M9133 3968 c-48 -8 -63 -14 -63 -26 0 -27 69 -424 79 -453 l9 -26
-270 -53 c-149 -29 -290 -55 -314 -58 l-44 -5 0 39 c0 22 -7 143 -15 269 -8
127 -15 233 -15 238 0 4 -31 7 -70 7 l-70 0 0 -152 c0 -143 5 -252 30 -703 6
-99 13 -223 16 -275 2 -52 7 -108 9 -125 2 -16 7 -91 10 -165 4 -74 15 -234
26 -355 10 -121 24 -283 30 -360 11 -145 22 -178 59 -190 55 -17 107 40 96
106 -3 19 -8 84 -11 144 -3 61 -12 189 -20 285 -7 96 -10 178 -7 181 4 3 127
36 274 73 147 37 311 79 363 95 86 26 96 27 104 12 8 -16 13 -39 80 -354 40
-187 54 -217 100 -217 61 0 87 48 71 130 -5 25 -30 162 -55 305 -91 512 -273
1454 -307 1589 -7 27 -17 50 -23 51 -5 1 -38 -2 -72 -7z m57 -725 c38 -212
119 -628 125 -645 5 -13 -2 -19 -32 -27 -439 -114 -686 -172 -693 -161 -4 6
-10 87 -14 178 -4 92 -14 259 -22 372 -7 113 -14 224 -14 246 l0 42 98 17 c53
9 189 36 302 60 113 23 210 43 216 44 6 0 20 -53 34 -126z"/>
<path d="M1021 3933 c-18 -69 -79 -364 -126 -608 -25 -132 -61 -321 -80 -420
-33 -169 -113 -622 -149 -836 -18 -108 -12 -142 28 -160 37 -17 74 -3 91 34 8
17 37 142 65 277 29 135 55 249 60 254 4 4 86 -12 182 -38 95 -25 263 -68 372
-96 110 -28 202 -52 204 -55 3 -2 -1 -77 -7 -167 -26 -347 -29 -471 -13 -506
23 -51 86 -56 117 -9 24 39 72 711 95 1342 6 154 17 352 25 440 8 88 15 193
17 234 l3 74 -60 23 c-95 36 -91 40 -99 -88 -3 -62 -9 -151 -13 -197 l-6 -83
-53 6 c-28 3 -148 24 -266 46 -343 65 -320 60 -313 77 18 48 85 465 76 474 -3
4 -36 9 -73 13 l-67 6 -10 -37z m324 -617 c127 -24 263 -50 303 -57 l72 -12 0
-46 c0 -25 -4 -107 -10 -181 -5 -74 -12 -198 -16 -275 -3 -77 -9 -188 -13
-246 l-6 -106 -367 91 c-202 51 -369 94 -372 97 -3 2 17 115 43 249 27 135 61
312 76 393 23 125 30 147 44 143 9 -3 120 -25 246 -50z"/>
<path d="M7867 3938 c-3 -12 -9 -44 -12 -70 -7 -44 -9 -47 -44 -52 -20 -4 -60
-7 -88 -8 -50 -2 -53 -4 -53 -28 0 -55 10 -69 43 -64 18 2 88 11 156 19 69 8
125 16 126 18 1 1 5 46 9 100 l6 97 -39 0 c-21 0 -52 3 -68 6 -26 5 -31 3 -36
-18z"/>
<path d="M2723 3923 c-13 -2 -23 -10 -24 -16 0 -7 -2 -25 -4 -42 -2 -16 -7
-54 -10 -84 l-7 -53 96 4 c52 2 98 6 101 10 3 3 1 36 -5 74 -18 121 -13 114
-73 113 -28 -1 -62 -4 -74 -6z"/>
<path d="M7850 3674 c-161 -23 -160 -22 -160 -48 0 -22 1 -22 71 -14 40 5 73
7 74 6 3 -4 -34 -445 -40 -485 -5 -27 -10 -32 -38 -35 -31 -3 -32 -4 -35 -55
l-3 -53 32 7 32 6 -6 -119 c-4 -65 -16 -230 -27 -367 -20 -249 -18 -279 14
-306 21 -17 62 -7 76 20 6 11 22 122 35 246 13 124 26 227 29 230 2 3 98 -12
211 -32 114 -20 213 -34 221 -31 22 8 19 83 -3 90 -10 3 -97 19 -193 36 -214
38 -242 46 -236 68 14 54 23 135 61 592 24 282 24 260 0 259 -11 -1 -63 -7
-115 -15z"/>
<path d="M2770 3673 c-87 -5 -100 -10 -100 -38 0 -24 2 -25 39 -19 46 7 40 28
71 -221 27 -205 68 -503 75 -532 4 -16 13 -23 30 -23 63 0 -7 -37 -105 -55
-19 -4 -65 -13 -102 -22 l-67 -14 6 -47 c3 -26 6 -48 7 -49 1 -1 55 9 121 23
65 13 122 20 125 16 4 -4 19 -97 34 -207 34 -248 40 -273 71 -285 44 -17 52
-5 61 93 11 130 9 172 -26 451 -17 136 -29 251 -25 254 3 3 53 -2 112 -11 58
-10 107 -16 109 -15 1 2 5 24 9 49 l7 46 -105 17 c-58 9 -115 16 -127 16 -11
0 -23 6 -25 13 -3 10 -75 546 -75 562 0 3 -15 4 -32 3 -18 -1 -58 -3 -88 -5z"/>
<path d="M6872 2592 c-67 -339 -122 -625 -122 -634 0 -24 39 -58 66 -58 60 0
66 16 184 527 l59 253 -10 97 c-6 54 -17 155 -25 225 -8 70 -14 145 -14 168 0
22 -3 40 -7 40 -5 0 -63 -278 -131 -618z"/>
<path d="M3880 2611 c0 -41 -1 -41 306 -41 l294 0 0 25 0 25 -300 0 c-176 0
-300 -4 -300 -9z"/>
<path d="M4572 2598 c2 -17 10 -23 28 -23 18 0 26 6 28 23 3 19 -1 22 -28 22
-27 0 -31 -3 -28 -22z"/>
<path d="M4800 2595 c0 -25 1 -25 90 -25 89 0 90 0 90 25 0 25 -1 25 -90 25
-89 0 -90 0 -90 -25z"/>
<path d="M5330 2595 l0 -25 125 0 125 0 0 25 0 25 -125 0 -125 0 0 -25z"/>
<path d="M5710 2596 c0 -21 4 -23 59 -25 50 -1 62 2 70 18 6 11 11 22 11 25 0
3 -31 6 -70 6 -67 0 -70 -1 -70 -24z"/>
<path d="M6610 2611 c0 -5 -3 -16 -6 -25 -5 -14 7 -16 94 -16 101 0 112 4 112
41 0 5 -45 9 -100 9 -55 0 -100 -4 -100 -9z"/>
<path d="M3181 2517 c-4 -12 -21 -68 -36 -124 -27 -98 -28 -104 -11 -122 29
-32 438 -160 470 -148 8 3 30 54 50 114 33 97 35 109 20 120 -13 10 -202 81
-432 164 l-53 19 -8 -23z"/>
<path d="M3766 2368 c-21 -72 -41 -148 -43 -168 -7 -47 58 -259 86 -285 44
-39 111 -9 111 49 0 17 -20 130 -44 251 -58 289 -58 285 -65 285 -3 0 -23 -60
-45 -132z"/>
<path d="M3136 2113 c-36 -137 -58 -199 -96 -263 -49 -83 -76 -163 -90 -274
-10 -73 -10 -90 1 -97 19 -12 226 -60 464 -108 392 -80 576 -95 780 -66 118
16 132 21 140 45 16 51 -36 114 -103 125 -284 46 -325 69 -469 262 -85 114
-105 133 -141 133 -26 0 -32 17 -39 112 l-6 78 -71 21 c-39 12 -129 38 -201
60 -71 21 -135 39 -141 39 -6 0 -19 -30 -28 -67z"/>
<path d="M2435 2136 c-55 -12 -164 -33 -242 -46 l-143 -24 0 -31 c1 -57 29
-188 44 -203 22 -22 74 -18 256 21 91 20 182 39 202 42 69 13 72 18 54 125
-24 142 -24 140 -49 139 -12 0 -67 -11 -122 -23z"/>
<path d="M4808 1973 c-37 -9 -15 -30 77 -70 l95 -42 0 60 0 59 -77 -1 c-43 -1
-86 -3 -95 -6z"/>
<path d="M4700 1915 c-26 -31 6 -58 156 -133 116 -58 121 -59 126 -21 4 28 1
33 -31 46 -72 30 -158 73 -194 97 -45 31 -41 30 -57 11z"/>
<path d="M2410 1809 c-74 -16 -155 -34 -179 -40 l-43 -12 6 -41 c20 -136 19
-194 -3 -246 -15 -36 -24 -81 -28 -153 -5 -86 -10 -110 -35 -157 -42 -79 -36
-100 37 -129 83 -33 181 -44 315 -37 119 6 218 26 258 52 29 19 28 47 -5 114
-22 47 -27 74 -33 180 -6 107 -11 132 -33 175 -24 46 -77 255 -77 304 0 27
-11 27 -180 -10z"/>
<path d="M7411 1059 c-214 -80 -233 -84 -431 -84 -163 0 -179 2 -228 24 -29
13 -56 21 -59 17 -4 -3 -2 -19 3 -34 20 -59 142 -87 329 -78 162 9 230 25 408
97 84 33 154 62 155 64 10 9 -12 45 -26 45 -9 -1 -77 -23 -151 -51z"/>
<path d="M2080 971 c0 -62 133 -101 347 -101 152 0 242 13 303 43 38 19 45 27
48 56 3 29 1 33 -15 26 -129 -53 -201 -63 -408 -55 -125 5 -146 9 -199 33 -32
15 -62 27 -67 27 -5 0 -9 -13 -9 -29z"/>
</g>
</svg>
